<?xml version="1.0" encoding="utf-8"?><svg viewBox="0 0 2000 1278.667" xmlns="http://www.w3.org/2000/svg" xmlns:xlink="http://www.w3.org/1999/xlink"><style>:root>svg{display:none}:root>svg:target{display:block}</style><svg viewBox="0 0 65 65" id="JS" xmlns="http://www.w3.org/2000/svg"><path d="M0 0h65v65H0V0Z"/><path d="m17.09 54.319 4.975-3.01c.96 1.7 1.833 3.14 3.927 3.14 2.007 0 3.272-.785 3.272-3.839V29.841h6.109v20.856c0 6.326-3.709 9.206-9.12 9.206-4.886 0-7.722-2.53-9.162-5.585m21.599-.654 4.974-2.88c1.31 2.139 3.011 3.71 6.021 3.71 2.531 0 4.145-1.266 4.145-3.011 0-2.095-1.657-2.837-4.45-4.058l-1.527-.655c-4.407-1.876-7.33-4.232-7.33-9.206 0-4.581 3.49-8.072 8.944-8.072 3.884 0 6.676 1.353 8.683 4.887l-4.756 3.054c-1.047-1.876-2.181-2.618-3.926-2.618-1.79 0-2.924 1.135-2.924 2.618 0 1.833 1.135 2.575 3.752 3.709l1.527.654c5.193 2.226 8.116 4.494 8.116 9.6 0 5.497-4.32 8.508-10.123 8.508-5.672 0-9.337-2.706-11.126-6.24"/></svg><svg viewBox="0 0 162 41" id="Jquery" xmlns="http://www.w3.org/2000/svg"><path fill-rule="evenodd" clip-rule="evenodd" d="m154.373 2.994 6.766.042S148.56 21.894 147.533 23.43c-.334.498-.841 1.035-1.098 1.7-.649 1.673-1.316 5.342-1.316 5.342l-6.191.034s.963-3.825.923-5.862c-.035-1.78-.856-3.557-1.316-5.341-.466-1.807-1.098-5.342-1.098-5.342h6.365l.878 3.885 9.693-14.853Z"/><path fill-rule="evenodd" clip-rule="evenodd" d="M141.561 6.972c1.249.833 2.015 5.426 2.015 5.426s-6.533.107-10.089.107h-3.072l-3.731 17.968h-5.706s3.551-19.526 4.39-23.067c.272-1.146 1.861-.95 4.544-.95h4.286c2.768 0 6.003-.39 7.363.516Zm-26.563 8.75s.178-1.153-.603-2.488c-.667-1.14-1.284-1.404-3.039-1.464-4.958-.173-4.862 3.892-4.862 3.892l8.504.06Zm5.377-4.654c.727 2.9-.658 9.712-.658 9.712s-7.232-.134-11.192 0c-1.232.041-2.706-.148-3.073.486-.516.888.189 2.256.786 2.833.687.666 2.025.74 2.506.809 3.215.451 9.944.116 9.944.116l-1.166 5.71s-9.509.528-14.265-.728c-.939-.247-1.819-.747-2.414-1.456-.162-.194-.303-.459-.456-.687-.123-.183-.48-.782-.64-1.256-1.087-3.202.126-9.338 1.316-12.625.138-.382.311-.865.494-1.275.228-.512.421-1.09.603-1.396.123-.211.275-.348.402-.547.147-.235.318-.463.476-.667.439-.564.937-.962 1.536-1.457 1.982-1.641 5.568-2.916 9.876-2.428 1.622.184 4.071.825 5.267 2.67.32.494.478 1.472.658 2.186Zm-26.17-4.633 5.532-.037s-3.083 16.183-4.654 24.075h-6.365c-4.448 0-8.41.61-10.094-2.914-1.635-3.421-.075-9.047.658-12.869.518-2.705 1.609-8.233 1.609-8.233l5.732-.059s-1.62 8.608-2.294 12.905c-.241 1.54-.739 2.99-.22 4.128.495 1.083 1.186 1.16 3.293 1.214.667.017 2.853 0 2.853 0l3.95-18.21ZM68.31 18.09c.578-2.278 1.423-4.747 1.316-6.8-.116-2.194-1.78-4.192-2.853-4.612-3.232-1.263-6.259.502-7.461 1.942-1.557 1.865-2.083 4.043-2.634 7.042-.41 2.226-.746 4.576 0 6.312 1.32 3.07 5.44 2.4 9.875 2.429.659-1.952 1.203-4.145 1.756-6.313Zm7.68-8.984c.632 5.084-1.793 10.696-3.463 15.576 1.703.17 3.195-.027 3.303.114.112.182-1.141 5.825-1.578 5.84-1.352.038-5.83.08-7.699.08-6.094 0-11.795.439-14.703-2.914-1.18-1.362-1.997-3.698-2.195-5.342-.329-2.744.084-5.764.659-8.255.52-2.249 1.187-4.37 2.194-6.313C55.07 2.946 59.524-.725 66.992.122c1.449.165 3.53.867 4.828 1.7.09.058.404.335.477.383 1.755 1.236 3.355 4.186 3.693 6.9ZM49.026 6.464c-.37 1.858-.738 3.963-1.126 5.798h-6.145c.476-2.034.84-4.057 1.317-5.827 1.966 0 3.794.03 5.954.03Zm-7.49 7.498h5.925c-.775 4.745-2.309 12.398-3.511 17.725-.753 3.333-1.256 5.766-3.292 7.527-.183.158-.288.083-.44.243-.375.396-2.11.855-3.072.97-1.562.188-3.329.025-5.249-.018.503-2.033 1.071-4.473 1.519-6.294 4.68.627 4.8-4.269 5.706-8.984.524-2.724 2.113-10.076 2.414-11.17ZM27.71 26.345l-.127.364c-2.164 4.662-5.998 7.522-11.467 7.649-2.556.058-4.992-.668-6.584-1.457-3.434-1.707-6.322-4.873-7.9-8.256-2.263-4.848-2.67-11.593 2.034-16.632.073 0-.57 1.093-.498 1.093l-.13.466c-3.39 11.745 7.056 21.809 17.21 20.658 2.44-.277 5.553-1.755 7.462-3.885Z"/><path fill-rule="evenodd" clip-rule="evenodd" d="M21.565 21.489c2.555.02 5.223-1.302 6.803-3.156-1.382 3.882-5.385 6.378-10.753 5.584-4.494-.665-8.776-5.67-9.217-10.684-.323-3.649.827-5.827 2.721-8.468-.658 1.381-.904 2.447-.966 3.127-.72 7.894 5.7 13.556 11.412 13.597Z"/><path fill-rule="evenodd" clip-rule="evenodd" d="M28.112 11.684c-.398 1.008-2.684 2.912-3.694 3.15-3.998.942-6.56-1.156-7.9-3.543-.2-.357-.569-1.33-.635-1.578-.52-1.957-.28-4.917 1.271-6.45-.467 1.458-.535 3.15-.29 4.25.15.665.604 1.826 1.058 2.557.827 1.33 1.352 1.654 2.414 2.36.479.318.992.573 1.214.643 1.007.328 3.133 1.193 6.562-1.389Z"/></svg><svg viewBox="0 0 104 65" id="Nodejs" xmlns="http://www.w3.org/2000/svg"><path d="M51.366 64.813c-.352 0-.68-.096-.986-.264l-3.122-1.89c-.47-.263-.235-.359-.094-.407.634-.215.751-.263 1.408-.645.07-.048.165-.024.235.023l2.395 1.46c.094.048.211.048.282 0l9.367-5.527c.093-.048.14-.143.14-.263V46.27c0-.119-.047-.215-.14-.263l-9.367-5.502c-.094-.048-.212-.048-.282 0l-9.367 5.502c-.094.048-.141.168-.141.264V57.3c0 .095.047.214.14.262l2.56 1.508c1.385.717 2.253-.12 2.253-.957V47.228c0-.144.118-.287.282-.287h1.197c.141 0 .282.12.282.287v10.886c0 1.89-1.01 2.99-2.77 2.99-.54 0-.963 0-2.16-.598l-2.465-1.435a2.026 2.026 0 0 1-.986-1.747v-11.03c0-.717.376-1.387.986-1.746l9.367-5.526a2.06 2.06 0 0 1 1.972 0l9.367 5.526c.61.359.986 1.029.986 1.747v11.029c0 .718-.375 1.388-.986 1.747l-9.367 5.526a2.366 2.366 0 0 1-.986.216Zm2.888-7.585c-4.109 0-4.954-1.914-4.954-3.54a.29.29 0 0 1 .282-.288h1.22c.142 0 .259.096.259.24.188 1.268.728 1.89 3.216 1.89 1.972 0 2.817-.455 2.817-1.532 0-.622-.234-1.076-3.31-1.387-2.559-.263-4.155-.838-4.155-2.919 0-1.938 1.596-3.086 4.273-3.086 3.005 0 4.484 1.052 4.671 3.35a.39.39 0 0 1-.07.214c-.047.048-.117.096-.188.096h-1.22a.276.276 0 0 1-.259-.215c-.282-1.316-1.01-1.747-2.934-1.747-2.16 0-2.419.766-2.419 1.34 0 .694.306.91 3.217 1.292 2.887.383 4.249.933 4.249 2.99-.023 2.106-1.714 3.302-4.695 3.302ZM22.302 21.676c0-.43-.234-.837-.61-1.053l-9.954-5.837a1.424 1.424 0 0 0-.54-.168h-.094a1.1 1.1 0 0 0-.54.168L.61 20.623c-.375.216-.61.622-.61 1.053l.023 15.695c0 .215.118.43.306.526.187.12.422.12.587 0l5.916-3.445c.375-.215.61-.622.61-1.053v-7.345c0-.43.235-.837.61-1.052l2.512-1.484c.188-.12.4-.167.61-.167.212 0 .423.048.588.167l2.512 1.484c.375.215.61.622.61 1.052V33.4c0 .43.235.838.61 1.053l5.916 3.445c.188.12.423.12.61 0a.596.596 0 0 0 .306-.526l-.024-15.695ZM70.147.072a.635.635 0 0 0-.587 0 .626.626 0 0 0-.305.526V16.15c0 .144-.07.287-.211.383a.441.441 0 0 1-.423 0l-2.488-1.46a1.19 1.19 0 0 0-1.197 0l-9.955 5.862c-.375.216-.61.622-.61 1.053v11.7c0 .43.235.837.61 1.052l9.955 5.861a1.19 1.19 0 0 0 1.197 0l9.954-5.861c.375-.215.61-.622.61-1.053V4.522c0-.455-.235-.861-.61-1.077L70.147.072Zm-.915 29.762c0 .12-.047.216-.141.264l-3.404 2.01a.342.342 0 0 1-.305 0l-3.405-2.01c-.093-.048-.14-.168-.14-.264v-4.019c0-.12.046-.215.14-.263l3.405-2.01a.342.342 0 0 1 .305 0l3.404 2.01c.094.048.14.167.14.263v4.02Zm34.04-4.114a1.2 1.2 0 0 0 .587-1.053v-2.848c0-.43-.235-.837-.587-1.052l-9.883-5.838a1.19 1.19 0 0 0-1.198 0l-9.954 5.862c-.375.215-.61.622-.61 1.052v11.7c0 .43.235.837.61 1.052l9.884 5.742c.376.216.822.216 1.174 0l5.986-3.397a.596.596 0 0 0 .305-.526.596.596 0 0 0-.305-.527l-10-5.861a.626.626 0 0 1-.306-.527v-3.66c0-.215.118-.43.305-.526l3.123-1.819a.564.564 0 0 1 .61 0l3.122 1.819c.188.12.306.31.306.526v2.87c0 .216.117.431.305.527.188.12.422.12.61 0l5.916-3.517Z"/><path d="M92.638 25.169a.21.21 0 0 1 .234 0l1.902 1.124c.07.048.117.12.117.216v2.249a.252.252 0 0 1-.117.215l-1.902 1.125a.21.21 0 0 1-.234 0l-1.902-1.125a.252.252 0 0 1-.118-.215v-2.25c0-.095.047-.167.118-.215l1.901-1.124Z"/><mask id="ma" maskUnits="userSpaceOnUse" x="27" y="14" width="23" height="27"><path d="M38.947 14.977a1.19 1.19 0 0 0-1.197 0l-9.884 5.814a1.2 1.2 0 0 0-.587 1.052v11.652c0 .43.235.837.587 1.053l9.884 5.813a1.19 1.19 0 0 0 1.197 0l9.884-5.813a1.2 1.2 0 0 0 .587-1.053V21.843c0-.43-.235-.837-.587-1.052l-9.884-5.814Z"/></mask><g mask="url(#ma)"><path d="M38.947 14.977a1.19 1.19 0 0 0-1.197 0l-9.884 5.814a1.2 1.2 0 0 0-.587 1.052v11.652c0 .43.235.837.587 1.053l9.884 5.813a1.19 1.19 0 0 0 1.197 0l9.884-5.813a1.2 1.2 0 0 0 .587-1.053V21.843c0-.43-.235-.837-.587-1.052l-9.884-5.814Z"/><path d="m48.854 20.79-9.93-5.814a1.613 1.613 0 0 0-.306-.12L27.491 34.285c.094.12.211.215.328.287l9.93 5.814c.283.167.611.215.916.12L49.112 21.03a1.236 1.236 0 0 0-.258-.239Z"/><path fill-rule="evenodd" clip-rule="evenodd" d="M48.878 34.548c.281-.168.493-.455.587-.766L38.572 14.834c-.282-.048-.587-.024-.846.143l-9.86 5.79 10.635 19.762a1.61 1.61 0 0 0 .446-.144l9.93-5.837Z"/><path fill-rule="evenodd" clip-rule="evenodd" d="m48.878 34.547-9.907 5.814c-.141.072-.282.12-.446.144l.187.358L49.7 34.38v-.144l-.281-.478a1.111 1.111 0 0 1-.54.79Z"/><path fill-rule="evenodd" clip-rule="evenodd" d="m48.878 34.547-9.907 5.814c-.141.072-.282.12-.446.144l.187.358L49.7 34.38v-.144l-.281-.478a1.111 1.111 0 0 1-.54.79Z"/></g></svg><svg viewBox="0 0 72 65" id="React" xmlns="http://www.w3.org/2000/svg"><path d="M0 32.208c0 5.43 5.277 10.5 13.597 13.356-1.662 8.405-.298 15.178 4.256 17.818 4.682 2.712 11.656.835 18.276-4.98 6.453 5.58 12.974 7.776 17.525 5.129 4.677-2.72 6.1-9.954 4.392-18.62 8.665-2.88 13.512-7.202 13.512-12.703 0-5.304-5.286-9.893-13.494-12.732 1.838-9.025.281-15.634-4.462-18.383-4.573-2.65-11.17-.34-17.718 5.386C29.073.4 22.54-1.454 17.802 1.302c-4.569 2.657-5.872 9.554-4.205 18.114C5.557 22.232 0 26.925 0 32.208Z"/><path d="M56.326 22.295a42.407 42.407 0 0 0-2.046-.648c.116-.474.222-.942.316-1.402 1.549-7.553.536-13.638-2.921-15.642-3.315-1.92-8.737.082-14.213 4.87-.527.461-1.055.948-1.583 1.46a38.64 38.64 0 0 0-1.052-.978c-5.74-5.12-11.492-7.278-14.946-5.268-3.312 1.926-4.293 7.647-2.899 14.805.135.692.292 1.398.47 2.116-.814.232-1.6.48-2.352.743-6.728 2.357-11.025 6.051-11.025 9.883 0 3.957 4.613 7.927 11.62 10.334.554.19 1.128.369 1.719.54a41.952 41.952 0 0 0-.5 2.279c-1.328 7.034-.29 12.62 3.013 14.534 3.412 1.977 9.138-.055 14.714-4.953.44-.387.883-.798 1.326-1.228a41.895 41.895 0 0 0 1.718 1.575c5.401 4.67 10.736 6.556 14.036 4.636 3.408-1.982 4.516-7.983 3.078-15.282a36.218 36.218 0 0 0-.381-1.707c.402-.12.797-.243 1.182-.371 7.285-2.426 12.025-6.347 12.025-10.357 0-3.846-4.435-7.565-11.299-9.94Z"/><path d="M54.746 40.001c-.348.116-.704.228-1.068.336-.804-2.559-1.89-5.28-3.218-8.09 1.268-2.744 2.312-5.43 3.093-7.972.65.19 1.281.389 1.89.6 5.88 2.034 9.467 5.041 9.467 7.359 0 2.468-3.874 5.673-10.164 7.767Zm-2.61 5.197c.636 3.228.726 6.147.305 8.428-.378 2.05-1.14 3.417-2.08 3.965-2.003 1.164-6.286-.35-10.905-4.344a38.983 38.983 0 0 1-1.598-1.464c1.79-1.968 3.58-4.255 5.327-6.796 3.072-.274 5.975-.722 8.607-1.334.13.526.244 1.041.344 1.545ZM25.74 57.39c-1.957.694-3.515.714-4.458.169-2.004-1.162-2.838-5.647-1.7-11.662.13-.69.284-1.397.463-2.12 2.603.578 5.485.994 8.564 1.245 1.759 2.486 3.6 4.772 5.456 6.773-.406.393-.81.767-1.211 1.12-2.466 2.166-4.937 3.702-7.114 4.475Zm-9.167-17.403c-3.1-1.064-5.658-2.447-7.412-3.957-1.577-1.356-2.372-2.703-2.372-3.795 0-2.326 3.45-5.291 9.204-7.307a38.987 38.987 0 0 1 2.187-.692c.795 2.6 1.839 5.317 3.098 8.065-1.276 2.789-2.334 5.55-3.137 8.18a32.19 32.19 0 0 1-1.568-.494Zm3.072-21.018c-1.194-6.133-.4-10.76 1.595-11.92 2.126-1.237 6.828.526 11.783 4.947.316.283.634.579.953.885-1.846 1.992-3.67 4.26-5.413 6.731-2.99.279-5.85.726-8.48 1.325a40.125 40.125 0 0 1-.438-1.968ZM47.06 25.77a86.832 86.832 0 0 0-1.932-3.194c2.027.258 3.97.6 5.794 1.018a58.438 58.438 0 0 1-2.034 5.499 95.083 95.083 0 0 0-1.828-3.323ZM35.88 14.83a58.26 58.26 0 0 1 3.74 4.536 79.552 79.552 0 0 0-7.511-.002 60.114 60.114 0 0 1 3.771-4.535ZM24.63 25.788a80.75 80.75 0 0 0-1.794 3.302 60.421 60.421 0 0 1-2.02-5.526 60.933 60.933 0 0 1 5.762-.993 80.327 80.327 0 0 0-1.948 3.217Zm2.006 16.301a57.558 57.558 0 0 1-5.857-.946 61.42 61.42 0 0 1 2.06-5.637 80.674 80.674 0 0 0 3.797 6.584Zm9.32 7.74a61.183 61.183 0 0 1-3.824-4.597c1.217.048 2.457.072 3.718.072 1.295 0 2.576-.03 3.836-.086a58.025 58.025 0 0 1-3.73 4.612ZM48.913 35.41a58.013 58.013 0 0 1 2.134 5.617 57.451 57.451 0 0 1-5.928 1.015 95.522 95.522 0 0 0 1.951-3.249 86.7 86.7 0 0 0 1.843-3.383Zm-4.194 2.02a89.508 89.508 0 0 1-3.05 4.943 81.372 81.372 0 0 1-5.819.205c-1.978 0-3.901-.061-5.754-.182a77.413 77.413 0 0 1-3.106-4.95 76.782 76.782 0 0 1-2.711-5.146 77.52 77.52 0 0 1 2.703-5.148 76.696 76.696 0 0 1 3.081-4.929 76.586 76.586 0 0 1 5.787-.218c1.968 0 3.908.075 5.797.22a82.18 82.18 0 0 1 3.063 4.913 89.577 89.577 0 0 1 2.74 5.123 82.331 82.331 0 0 1-2.732 5.17Zm5.6-30.463c2.128 1.234 2.956 6.207 1.618 12.728-.085.416-.18.84-.285 1.27-2.637-.611-5.5-1.066-8.497-1.349-1.747-2.498-3.556-4.77-5.372-6.737.488-.472.976-.922 1.461-1.347C43.936 7.43 48.321 5.81 50.32 6.966Z"/><path d="M35.85 26.532c3.134 0 5.675 2.552 5.675 5.702 0 3.149-2.54 5.702-5.675 5.702-3.134 0-5.675-2.553-5.675-5.702 0-3.15 2.541-5.703 5.675-5.703Z"/></svg><svg viewBox="0 0 24 24" id="Sun" xmlns="http://www.w3.org/2000/svg"><path d="M12 17.75A5.75 5.75 0 1 1 17.75 12 5.76 5.76 0 0 1 12 17.75Zm0-10A4.25 4.25 0 1 0 16.25 12 4.26 4.26 0 0 0 12 7.75ZM12 5a.76.76 0 0 1-.75-.75v-1.5a.75.75 0 1 1 1.5 0v1.5A.76.76 0 0 1 12 5Zm0 17a.76.76 0 0 1-.75-.75v-1.5a.75.75 0 1 1 1.5 0v1.5A.76.76 0 0 1 12 22Zm9.25-9.25h-1.5a.75.75 0 1 1 0-1.5h1.5a.75.75 0 1 1 0 1.5Zm-17 0h-1.5a.75.75 0 1 1 0-1.5h1.5a.75.75 0 1 1 0 1.5Zm2.25-5.5A.74.74 0 0 1 6 7L4.91 6A.77.77 0 0 1 6 4.91L7 6a.75.75 0 0 1-.5 1.25Zm12.06 12.06a.741.741 0 0 1-.53-.22L17 18a.75.75 0 0 1 1-1l1.09 1a.75.75 0 0 1 0 1.06.742.742 0 0 1-.53.25ZM17.5 7.25A.75.75 0 0 1 17 6l1-1.09A.77.77 0 1 1 19.09 6L18 7a.74.74 0 0 1-.5.25ZM5.44 19.31a.74.74 0 0 1-.53-.22.75.75 0 0 1 0-1.06L6 17a.749.749 0 0 1 1 1l-1 1.09a.74.74 0 0 1-.56.22Z"/></svg><svg viewBox="0 0 96 96" id="arrow" xmlns="http://www.w3.org/2000/svg"><path d="m48 1 47 52h-7L48 8 8 53H1L48 1Z"/><path d="M.5.5h95v95H.5z"/></svg><svg viewBox="0 0 49.656 49.656" xml:space="preserve" id="arrow-up" xmlns="http://www.w3.org/2000/svg"><path d="m48.242 35.122-2.828 2.828-20.586-20.586L4.242 37.95l-2.828-2.828 23.414-23.415z"/><path d="M45.414 39.363 24.828 18.778 4.242 39.363 0 35.121l24.828-24.828 24.828 24.828-4.242 4.242zM24.828 15.95l20.586 20.585 1.414-1.414-22-22-22 22 1.414 1.414L24.828 15.95z"/></svg><svg viewBox="0 0 46 65" id="css3" xmlns="http://www.w3.org/2000/svg"><path d="M22.972 65 4.186 59.78 0 12.773h46l-4.19 46.998L22.971 65Z"/><path d="m38.222 56.78 3.58-40.162H23v44.386l15.222-4.225ZM23 49.023l-.025.007-6.414-1.734-.41-4.597h-5.78l.806 9.052 11.797 3.278.026-.008v-5.998ZM8.56 22.383l.523 5.765H23v-5.765H8.56ZM9.597 34.05l.516 5.765H23V34.05H9.597Z"/><path d="M27.565 0h6.975v2.54h-4.058v.508h4.058v5.84h-6.975V6.22h4.059v-.508h-4.058V0Zm-8.37 0h6.975v2.54h-4.058v.508h4.058v5.84h-6.974V6.22h4.058v-.508h-4.059V0Zm-8.37 0h6.976v2.92h-4.058v2.92H17.8v2.92h-6.975V0Zm25.541 34.051 1.04-11.668H22.98v5.765h8.115l-.524 5.903h-7.59v5.765h7.09l-.668 7.477-6.423 1.735v5.998l11.806-3.275.086-.974 1.354-15.178.14-1.548Z"/></svg><svg xml:space="preserve" viewBox="0 0 256 256" id="github" xmlns="http://www.w3.org/2000/svg"><path d="M127.857 1.407c-69.837 0-126.45 57.512-126.45 128.456 0 59.91 40.371 110.237 94.984 124.444-.037-14.845-.085-33.054-.113-38.727-36.49 8.061-44.19-15.722-44.19-15.722-5.965-15.402-14.564-19.499-14.564-19.499-11.903-8.27.896-8.101.896-8.101 13.17.938 20.109 13.732 20.109 13.732 11.698 20.37 30.685 14.48 38.17 11.077 1.178-8.61 4.575-14.49 8.33-17.818-29.135-3.37-59.764-14.795-59.764-65.852 0-14.548 5.126-26.434 13.517-35.766-1.363-3.358-5.854-16.91 1.27-35.265 0 0 11.015-3.58 36.08 13.659 10.465-2.953 21.685-4.434 32.832-4.485 11.147.05 22.376 1.532 32.86 4.485 25.037-17.24 36.036-13.66 36.036-13.66 7.14 18.355 2.65 31.908 1.287 35.266 8.41 9.332 13.499 21.218 13.499 35.766 0 51.181-30.685 62.446-59.895 65.748 4.704 4.136 8.896 12.243 8.896 24.675 0 9.871-.045 32.599-.087 49.85 53.466-14.99 92.747-64.724 92.747-123.807 0-70.944-56.613-128.456-126.45-128.456z"/></svg><svg viewBox="0 0 46 65" id="html5" xmlns="http://www.w3.org/2000/svg"><path d="M4.166 59.78 0 12.773h45.775l-4.17 46.998L22.858 65 4.166 59.78Z"/><path d="m22.887 61.004 15.147-4.225 3.564-40.162h-18.71v44.387ZM22.887 34.051h-7.583l-.523-5.903h8.106v-5.765H8.517l.138 1.546 1.409 15.887h12.823V34.05Zm0 14.972-.025.007-6.382-1.734-.408-4.598h-5.753l.803 9.052 11.739 3.279.026-.008v-5.998Z"/><path d="M4.259 0H7.17v2.895h2.664V0h2.912v8.765H9.835V5.83H7.171v2.935H4.26V0Zm12.318 2.907h-2.564V0h8.041v2.907H19.49v5.858h-2.912V2.907ZM23.33 0h3.037l1.868 3.08L30.1 0h3.038v8.765h-2.9V4.421l-2.004 3.116h-.05L26.18 4.421v4.344h-2.85V0Zm11.258 0h2.913v5.868h4.095v2.897h-7.008V0ZM22.867 34.051v5.765h7.057l-.665 7.477-6.392 1.735v5.998l11.748-3.276.086-.974L36.048 35.6l.14-1.548h-13.32Zm0-11.668v5.765H36.71l.115-1.296.261-2.923.137-1.546H22.867Z"/></svg><svg viewBox="0 0 234 103" id="logo" xmlns="http://www.w3.org/2000/svg"><path d="M65.52 46.52a22.59 22.59 0 0 1-1.968-.384c-.832-.16-1.68-.496-2.544-1.008-.864-.512-1.6-1.296-2.208-2.352-.608-1.024-.912-2.4-.912-4.128 0-1.984.4-4.16 1.2-6.528.832-2.4 1.84-4.896 3.024-7.488a380.828 380.828 0 0 0 3.408-7.68c.864-2.016 1.296-3.552 1.296-4.608 0-1.056-.4-1.584-1.2-1.584-.896 0-2.24.72-4.032 2.16-1.76 1.408-3.808 3.552-6.144 6.432-.608.768-1.392 1.84-2.352 3.216a133.42 133.42 0 0 0-3.072 4.512 190.942 190.942 0 0 0-3.216 4.992 154.304 154.304 0 0 0-2.736 4.608c-.768 1.408-1.328 2.528-1.68 3.36-.416.992-.896 1.664-1.44 2.016-.544.384-1.056.576-1.536.576-.416 0-.784-.112-1.104-.336-.288-.224-.432-.496-.432-.816 0-.192.048-.352.144-.48.192-.384.704-1.312 1.536-2.784.832-1.472 1.776-3.424 2.832-5.856 1.056-2.464 2.064-5.312 3.024-8.544.992-3.264 1.728-6.864 2.208-10.8.064-.448.096-.928.096-1.44 0-1.12-.192-1.936-.576-2.448-.384-.544-.896-.816-1.536-.816-.704 0-1.504.304-2.4.912-.896.608-1.808 1.488-2.736 2.64a122.778 122.778 0 0 0-4.224 5.616 77.365 77.365 0 0 0-3.36 5.088 118.365 118.365 0 0 0-2.976 5.424 190.08 190.08 0 0 0-3.072 6.48c-1.088 2.368-2.336 5.12-3.744 8.256-.224.512-.608.88-1.152 1.104-.512.224-.992.336-1.44.336-.448 0-.816-.096-1.104-.288-.288-.192-.384-.464-.288-.816.832-1.28 1.728-2.896 2.688-4.848.96-1.952 1.92-4.08 2.88-6.384a118.793 118.793 0 0 0 2.736-7.056c.864-2.4 1.6-4.656 2.208-6.768.608-2.144 1.024-4 1.248-5.568.064-.512.112-.992.144-1.44.032-.448.048-.88.048-1.296 0-2.464-.528-4.224-1.584-5.28-1.024-1.056-2.352-1.584-3.984-1.584-1.376 0-2.88.32-4.512.96-1.6.608-3.232 1.456-4.896 2.544a34.398 34.398 0 0 0-4.704 3.792 29.707 29.707 0 0 0-3.984 4.56c-1.152 1.6-2.032 3.232-2.64 4.896A26.323 26.323 0 0 0 3.792 23a16.68 16.68 0 0 0-.288 2.976c0 1.792.32 3.312.96 4.56.672 1.248 1.552 2.192 2.64 2.832 1.12.64 2.32.96 3.6.96.448 0 .944-.048 1.488-.144a14.844 14.844 0 0 0 1.44-.384c.928-.352 1.824-.896 2.688-1.632a14.072 14.072 0 0 0 2.304-2.64c.672-.992 1.2-2 1.584-3.024.384-1.024.576-1.984.576-2.88 0-.928-.256-1.696-.768-2.304-.512-.608-1.328-.912-2.448-.912-.128 0-.272.016-.432.048h-.576c-.224 0-.432-.032-.624-.096-.192-.096-.288-.208-.288-.336 0-.128.16-.272.48-.432.352-.16.976-.24 1.872-.24 1.44 0 2.512.432 3.216 1.296.736.832 1.104 1.904 1.104 3.216 0 1.184-.32 2.464-.96 3.84-.64 1.376-1.6 2.688-2.88 3.936-1.28 1.248-2.896 2.272-4.848 3.072-1.152.448-2.272.672-3.36.672-1.6 0-3.12-.4-4.56-1.2-1.44-.832-2.608-2-3.504-3.504-.896-1.536-1.344-3.344-1.344-5.424 0-.928.096-1.904.288-2.928a17.55 17.55 0 0 1 1.056-3.264 26.218 26.218 0 0 1 4.272-6.816 32.508 32.508 0 0 1 6.048-5.472c2.208-1.568 4.448-2.784 6.72-3.648 2.272-.864 4.384-1.296 6.336-1.296 2.368 0 4.32.704 5.856 2.112 1.568 1.408 2.352 3.68 2.352 6.816 0 .224-.016.528-.048.912 0 .352-.016.624-.048.816a29.577 29.577 0 0 1-1.008 4.896 62.362 62.362 0 0 1-1.488 4.704 6.075 6.075 0 0 0-.24.816 5.11 5.11 0 0 0-.048.528c0 .16.032.24.096.24.128 0 .384-.336.768-1.008a162.95 162.95 0 0 1 1.968-3.504 47.587 47.587 0 0 1 1.776-2.784c.576-.832 1.2-1.68 1.872-2.544.672-.864 1.44-1.824 2.304-2.88.992-1.184 2.128-2.128 3.408-2.832 1.28-.704 2.512-1.056 3.696-1.056 1.056 0 1.952.352 2.688 1.056.736.704 1.104 1.904 1.104 3.6v.48c0 .128-.016.32-.048.576a44.28 44.28 0 0 1-1.824 9.072 710.926 710.926 0 0 1-2.88 8.928c.992-1.536 2.336-3.488 4.032-5.856a178.725 178.725 0 0 1 5.568-7.344c2.464-3.072 4.752-5.376 6.864-6.912 2.112-1.536 3.856-2.304 5.232-2.304 1.728 0 2.592 1.056 2.592 3.168 0 .8-.16 1.76-.48 2.88-.288 1.12-.752 2.304-1.392 3.552a196.758 196.758 0 0 0-2.352 4.896 97.637 97.637 0 0 0-2.4 5.76c-.768 2.016-1.408 4-1.92 5.952-.48 1.92-.72 3.696-.72 5.328 0 1.76.4 3.184 1.2 4.272.832 1.12 2.256 1.648 4.272 1.584h.288c.48 0 .72.096.72.288 0 .128-.16.256-.48.384-.32.128-.768.16-1.344.096Zm6.669-25.008c-.48 0-.88-.16-1.2-.48a1.91 1.91 0 0 1-.432-1.248c0-.608.24-1.136.72-1.584.48-.448 1.008-.672 1.584-.672.512 0 .928.16 1.248.48.32.32.48.704.48 1.152 0 .608-.24 1.152-.72 1.632s-1.04.72-1.68.72ZM68.301 41c-1.184 0-2.016-.336-2.496-1.008-.48-.704-.72-1.504-.72-2.4 0-.48.048-.96.144-1.44.128-.512.272-.976.432-1.392l3.216-8.208c.096-.256.144-.48.144-.672 0-.32-.08-.592-.24-.816a25.27 25.27 0 0 0-.336-.528l2.64-.096c.48-.032.816.032 1.008.192.224.128.336.288.336.48s-.112.544-.336 1.056l-3.984 9.36-.288.624c-.16.384-.256.64-.288.768-.096.48-.16.784-.192.912a1.443 1.443 0 0 0-.048.24v.384c0 .416.096.768.288 1.056.224.288.592.432 1.104.432.32 0 .688-.096 1.104-.288.416-.192.72-.384.912-.576.8-.832 1.584-1.92 2.352-3.264a73.7 73.7 0 0 0 2.208-4.08c.128-.32.288-.48.48-.48.16 0 .24.112.24.336 0 .128-.048.32-.144.576-.32.672-.72 1.504-1.2 2.496a23.795 23.795 0 0 1-1.728 2.976c-.64.96-1.344 1.76-2.112 2.4-.768.64-1.6.96-2.496.96Zm15.638.336c-.864-.096-1.648-.496-2.352-1.2-.672-.736-1.136-1.712-1.392-2.928a10.734 10.734 0 0 0-.096-.576v-.624c0-1.28.287-2.304.864-3.072.576-.8 1.104-1.216 1.584-1.248.511.032 1.136-.08 1.871-.336a6.39 6.39 0 0 0 1.92-1.152c.928-.736 1.393-1.488 1.393-2.256 0-.8-.465-1.2-1.392-1.2-.513 0-1.168.176-1.968.528-.768.352-1.664.96-2.688 1.824-1.28 1.088-2.609 2.544-3.985 4.368-.191.416-.415 1.04-.671 1.872-.257.8-.48 1.632-.672 2.496-.16.864-.24 1.6-.24 2.208 0 .48.08.8.24.96H73.33c-.352 0-.528-.144-.528-.432 0-.096.016-.176.048-.24s.065-.192.097-.384a25.048 25.048 0 0 1 1.775-4.704 129.061 129.061 0 0 0 2.209-4.656c-1.12 2.08-2.144 3.92-3.072 5.52-.896 1.568-1.584 2.576-2.064 3.024a.326.326 0 0 1-.24.096c-.129 0-.209-.08-.24-.24-.064-.16-.032-.32.096-.48.671-.896 1.44-2.128 2.303-3.696.897-1.568 1.84-3.312 2.832-5.232.992-1.952 2-3.92 3.024-5.904a278.398 278.398 0 0 1 2.977-5.616c.992-1.76 1.888-3.248 2.688-4.464.576-.864 1.12-1.472 1.632-1.824.511-.384 1.04-.576 1.584-.576h.24c.287 0 .608.048.96.144.383.096.736.112 1.056.048-.608.48-1.344 1.264-2.208 2.352-.864 1.088-1.776 2.384-2.736 3.888a144.943 144.943 0 0 0-2.928 4.8 158.637 158.637 0 0 0-2.736 5.04 29.39 29.39 0 0 0-.913 2.016c-.288.704-.56 1.408-.816 2.112A39.661 39.661 0 0 1 80.675 29a27.327 27.327 0 0 1 2.688-2.448c.96-.768 1.904-1.328 2.833-1.68 1.056-.384 1.936-.576 2.64-.576.736 0 1.264.176 1.584.528.352.352.528.8.528 1.344 0 .608-.24 1.344-.72 2.208a6.999 6.999 0 0 1-1.969 2.16c-.703.48-1.44.896-2.207 1.248-.769.352-1.68.576-2.737.672a7.018 7.018 0 0 0-.431 1.392 9.492 9.492 0 0 0-.096 1.344c0 1.248.287 2.352.863 3.312.576.928 1.328 1.392 2.256 1.392.448 0 .928-.128 1.44-.384.544-.256 1.105-.688 1.68-1.296.64-.64 1.28-1.552 1.92-2.736a61.954 61.954 0 0 0 2.017-3.888c.128-.256.272-.384.431-.384.192 0 .288.128.288.384 0 .128-.047.288-.144.48-.927 2.144-1.823 3.856-2.688 5.136-.831 1.248-1.647 2.192-2.447 2.832-.769.608-1.52.992-2.257 1.152a7.343 7.343 0 0 1-2.207.144Zm12.204-.144c-1.184 0-2.256-.384-3.216-1.152-.928-.768-1.392-1.936-1.392-3.504 0-1.44.352-2.976 1.056-4.608.704-1.664 1.6-3.12 2.688-4.368a13.012 13.012 0 0 1 3.12-2.688c1.152-.704 2.24-1.056 3.264-1.056.704 0 1.312.192 1.824.576.544.416.816 1.008.816 1.776 0 .8-.304 1.68-.912 2.64-.608.96-1.472 1.856-2.592 2.688-.48.352-1.088.688-1.824 1.008-.736.32-1.472.592-2.208.816-.736.192-1.344.288-1.824.288-.16.384-.32.896-.48 1.536a10.01 10.01 0 0 0-.192 1.968c0 .8.16 1.52.48 2.16.32.64.912.96 1.776.96a4.89 4.89 0 0 0 2.88-.912 10.25 10.25 0 0 0 2.304-2.256 18.4 18.4 0 0 0 1.68-2.784c.48-.928.864-1.712 1.152-2.352.192-.448.448-.672.768-.672.16 0 .24.08.24.24 0 .128-.048.288-.144.48-.448.96-.928 1.984-1.44 3.072a19.467 19.467 0 0 1-1.824 3.024 8.564 8.564 0 0 1-2.544 2.256c-.96.576-2.112.864-3.456.864Zm-.864-8.448c.448 0 1.2-.16 2.256-.48a8.6 8.6 0 0 0 2.88-1.632c.832-.736 1.472-1.536 1.92-2.4.448-.896.672-1.648.672-2.256 0-.704-.256-1.056-.768-1.056-.384 0-.912.256-1.584.768s-1.504 1.376-2.496 2.592c-.608.768-1.184 1.6-1.728 2.496a49.628 49.628 0 0 0-1.152 1.968Zm27.687 10.128c-.704 0-1.424-.048-2.16-.144-2.016-.256-3.504-.848-4.464-1.776-.928-.928-1.392-1.936-1.392-3.024 0-1.184.528-2.256 1.584-3.216 1.056-.992 2.544-1.488 4.464-1.488 1.28 0 2.672.256 4.176.768.832.288 1.824.768 2.976 1.44a62.388 62.388 0 0 0 3.984 2.112c1.6-1.536 3.056-3.44 4.368-5.712a126.91 126.91 0 0 0 3.984-7.296 159.7 159.7 0 0 1 4.32-7.872 48.729 48.729 0 0 1 5.424-7.392l2.784-3.12a43.349 43.349 0 0 0-3.696-.432 40.045 40.045 0 0 0-3.984-.192c-1.728 0-3.504.096-5.328.288-1.824.16-3.648.432-5.472.816-3.008.64-5.552 1.664-7.632 3.072-2.08 1.408-3.664 2.944-4.752 4.608-1.056 1.632-1.584 3.168-1.584 4.608 0 .992.272 1.888.816 2.688.576.768 1.424 1.328 2.544 1.68a7.082 7.082 0 0 0 2.16.336c1.088 0 2.048-.224 2.88-.672a7.752 7.752 0 0 0 2.112-1.632c.576-.672.992-1.312 1.248-1.92.288-.608.416-1.056.384-1.344 0-.224.16-.336.48-.336.32 0 .48.24.48.72v.048c0 1.312-.4 2.448-1.2 3.408-.8.96-1.808 1.696-3.024 2.208-1.184.512-2.384.768-3.6.768a8.152 8.152 0 0 1-2.4-.384c-1.728-.608-3.008-1.488-3.84-2.64-.832-1.184-1.248-2.48-1.248-3.888 0-1.312.352-2.656 1.056-4.032.736-1.408 1.808-2.736 3.216-3.984 1.408-1.28 3.152-2.384 5.232-3.312 2.112-.928 4.544-1.584 7.296-1.968a52.038 52.038 0 0 1 4.368-.48 62.824 62.824 0 0 1 4.176-.144c1.856 0 3.664.096 5.424.288 1.792.16 3.472.416 5.04.768.448-.384.896-.72 1.344-1.008.48-.288.912-.512 1.296-.672.224-.096.416-.16.576-.192.16-.032.288-.048.384-.048.192 0 .288.064.288.192 0 .16-.24.416-.72.768-.32.224-.624.48-.912.768-.288.256-.464.448-.528.576 3.264.832 5.904 1.984 7.92 3.456 2.048 1.44 3.072 3.152 3.072 5.136 0 1.024-.336 2.144-1.008 3.36-.704 1.184-1.68 2.144-2.928 2.88a15.937 15.937 0 0 1-3.984 1.584c-1.408.32-2.72.512-3.936.576 1.056.32 2.208.8 3.456 1.44 1.28.608 2.448 1.36 3.504 2.256 1.088.896 1.808 1.952 2.16 3.168.224.768.336 1.552.336 2.352a7.694 7.694 0 0 1-1.488 4.608c-.96 1.376-2.256 2.56-3.888 3.552-1.6.96-3.36 1.696-5.28 2.208-1.92.544-3.824.816-5.712.816-.704 0-1.424-.048-2.16-.144-3.072-.384-5.616-.864-7.632-1.44-1.984-.576-3.728-1.216-5.232-1.92-3.104 2.336-6.48 3.504-10.128 3.504Zm24.48-1.392c1.984 0 3.792-.304 5.424-.912 1.632-.608 3.04-1.408 4.224-2.4 1.216-.992 2.144-2.096 2.784-3.312.672-1.216 1.008-2.416 1.008-3.6 0-1.12-.336-2.208-1.008-3.264-.672-1.056-1.728-1.936-3.168-2.64a23.768 23.768 0 0 0-3.888-1.488 233.224 233.224 0 0 0-3.408-1.056c-.96-.32-1.52-.64-1.68-.96 0-.384.16-.64.48-.768.352-.16.8-.24 1.344-.24.64 0 1.408.048 2.304.144.896.096 1.84.144 2.832.144 1.024 0 2.064-.224 3.12-.672a11.973 11.973 0 0 0 2.976-1.872c.896-.8 1.616-1.664 2.16-2.592.576-.96.864-1.936.864-2.928 0-.896-.304-1.776-.912-2.64-.608-.864-1.616-1.616-3.024-2.256a24.619 24.619 0 0 0-4.56-1.536c-1.6 2.208-3.2 4.688-4.8 7.44-1.6 2.72-3.2 5.488-4.8 8.304a161.774 161.774 0 0 1-4.848 7.92c-1.632 2.496-3.264 4.64-4.896 6.432-.384.416-.688.736-.912.96-.224.192-.528.464-.912.816 1.504.608 3.216 1.184 5.136 1.728s4.112.928 6.576 1.152c.256.032.512.048.768.048.288.032.56.048.816.048Zm-25.44-.096c1.792.096 3.424-.112 4.896-.624a15.983 15.983 0 0 0 4.176-2.256l-3.456-1.68a29.968 29.968 0 0 0-3.696-1.632c-.928-.32-1.776-.48-2.544-.48-1.184 0-2.08.32-2.688.96-.608.608-.912 1.312-.912 2.112 0 .832.352 1.632 1.056 2.4.704.736 1.76 1.136 3.168 1.2Zm48.762-.192c-1.184 0-2.256-.384-3.216-1.152-.928-.768-1.392-1.936-1.392-3.504 0-1.44.352-2.976 1.056-4.608.704-1.664 1.6-3.12 2.688-4.368a13.012 13.012 0 0 1 3.12-2.688c1.152-.704 2.24-1.056 3.264-1.056.704 0 1.312.192 1.824.576.544.416.816 1.008.816 1.776 0 .8-.304 1.68-.912 2.64-.608.96-1.472 1.856-2.592 2.688-.48.352-1.088.688-1.824 1.008-.736.32-1.472.592-2.208.816-.736.192-1.344.288-1.824.288-.16.384-.32.896-.48 1.536a10.01 10.01 0 0 0-.192 1.968c0 .8.16 1.52.48 2.16.32.64.912.96 1.776.96a4.89 4.89 0 0 0 2.88-.912 10.252 10.252 0 0 0 2.304-2.256 18.4 18.4 0 0 0 1.68-2.784c.48-.928.864-1.712 1.152-2.352.192-.448.448-.672.768-.672.16 0 .24.08.24.24 0 .128-.048.288-.144.48-.448.96-.928 1.984-1.44 3.072a19.467 19.467 0 0 1-1.824 3.024 8.565 8.565 0 0 1-2.544 2.256c-.96.576-2.112.864-3.456.864Zm-.864-8.448c.448 0 1.2-.16 2.256-.48a8.6 8.6 0 0 0 2.88-1.632c.832-.736 1.472-1.536 1.92-2.4.448-.896.672-1.648.672-2.256 0-.704-.256-1.056-.768-1.056-.384 0-.912.256-1.584.768s-1.504 1.376-2.496 2.592c-.608.768-1.184 1.6-1.728 2.496a49.628 49.628 0 0 0-1.152 1.968Zm15.074 8.304c-.608 0-1.216-.24-1.824-.72-.608-.512-.912-1.328-.912-2.448 0-.864.208-1.856.624-2.976a16.044 16.044 0 0 1 1.536-3.168c.672-1.024 1.152-1.856 1.44-2.496.096-.256.144-.48.144-.672 0-.576-.368-.992-1.104-1.248-.704-.256-1.632-.4-2.784-.432l-.576 1.584c-.352 1.024-.848 2.224-1.488 3.6a36.07 36.07 0 0 1-2.064 3.984c-.736 1.28-1.504 2.304-2.304 3.072a.326.326 0 0 1-.24.096c-.128 0-.208-.08-.24-.24-.064-.16 0-.352.192-.576a34.715 34.715 0 0 0 3.36-5.52 46.978 46.978 0 0 0 2.496-6.24c.704-2.112 1.216-4.064 1.536-5.856.096-.512.272-.88.528-1.104.256-.256.528-.384.816-.384.416 0 .8.208 1.152.624.352.384.528.944.528 1.68 0 .128-.016.272-.048.432 0 .16-.016.32-.048.48-.128.672-.512 1.312-1.152 1.92-.608.576-1.104 1.008-1.488 1.296.32.032.656.064 1.008.096h1.152c1.504 0 2.992-.096 4.464-.288.064.192.096.336.096.432 0 .416-.128.944-.384 1.584-.224.64-.464 1.216-.72 1.728-.128.288-.384.816-.768 1.584-.384.736-.8 1.584-1.248 2.544a25.602 25.602 0 0 0-1.152 2.784c-.288.896-.432 1.664-.432 2.304 0 .832.32 1.248.96 1.248.48 0 1.008-.304 1.584-.912.576-.64 1.136-1.408 1.68-2.304a40.228 40.228 0 0 0 1.536-2.688 90 90 0 0 0 1.104-2.112c.128-.32.304-.48.528-.48.128 0 .192.112.192.336 0 .128-.048.32-.144.576a90.357 90.357 0 0 1-1.248 2.496c-.48.928-1.024 1.84-1.632 2.736a12.799 12.799 0 0 1-1.92 2.352c-.672.64-1.408 1.056-2.208 1.248-.096.032-.272.048-.528.048Zm7.908.144c-1.568 0-2.688-.4-3.36-1.2-.64-.832-.96-1.696-.96-2.592 0-.736.176-1.408.528-2.016.384-.608.832-.928 1.344-.96a450.26 450.26 0 0 0 2.064-4.08 104.813 104.813 0 0 0 2.112-4.272 15 15 0 0 1 1.68-2.688c.704-.864 1.472-1.36 2.304-1.488h.48c.256 0 .48.016.672.048.224.032.448.096.672.192.352.16.528.4.528.72 0 .192-.112.288-.336.288-.096 0-.224-.048-.384-.144-.384-.16-.72-.24-1.008-.24-.192 0-.368.048-.528.144-.608.32-1.04.768-1.296 1.344a4.988 4.988 0 0 0-.336 1.824c0 .512.048 1.04.144 1.584.128.512.272.976.432 1.392.352.896.72 1.776 1.104 2.64.416.864.624 1.792.624 2.784 0 .96-.32 1.984-.96 3.072a7.765 7.765 0 0 1-2.448 2.544l.336.048c.16.032.272.048.336.048h.144c.736 0 1.424-.208 2.064-.624a7.815 7.815 0 0 0 1.776-1.632c.512-.64 1.088-1.536 1.728-2.688a48.74 48.74 0 0 0 1.92-3.648c.096-.16.208-.24.336-.24.16 0 .272.064.336.192.096.096.112.224.048.384a80.041 80.041 0 0 1-1.44 2.928 23.555 23.555 0 0 1-1.776 2.976 9.447 9.447 0 0 1-2.352 2.304c-.864.576-1.84.864-2.928.864-.256 0-.528-.016-.816-.048a4.19 4.19 0 0 1-.864-.192c-.32.128-.656.224-1.008.288-.32.096-.624.144-.912.144Zm1.44-1.44c.544-.448 1.024-1.104 1.44-1.968.448-.864.672-2 .672-3.408 0-1.248-.128-2.576-.384-3.984s-.384-2.656-.384-3.744v-.576c.032-.192.064-.368.096-.528-.416.864-.896 1.872-1.44 3.024a155.078 155.078 0 0 1-1.632 3.264 597.2 597.2 0 0 1-1.392 2.688l.24.048c.192 0 .368.112.528.336.16.192.224.592.192 1.2-.032.8.144 1.552.528 2.256.416.672.928 1.136 1.536 1.392Zm-1.824.672c.192 0 .368-.016.528-.048.16-.064.304-.112.432-.144-.48-.352-.912-.816-1.296-1.392-.352-.608-.56-1.376-.624-2.304-.576.608-.864 1.264-.864 1.968 0 .512.16.96.48 1.344.32.384.768.576 1.344.576Zm7 .96c1.344-2.752 2.736-5.632 4.176-8.64a803.91 803.91 0 0 1 4.512-9.168c1.536-3.072 3.056-6 4.56-8.784.544-.96 1.04-1.712 1.488-2.256.48-.544 1.104-.816 1.872-.816.288 0 .624.048 1.008.144.384.096.752.112 1.104.048-.416.448-.992 1.232-1.728 2.352a113.715 113.715 0 0 0-2.4 4.032c-.864 1.568-1.792 3.264-2.784 5.088-.96 1.792-1.92 3.616-2.88 5.472a825.488 825.488 0 0 0-2.592 5.136 36.4 36.4 0 0 1 1.968-2.352 21.877 21.877 0 0 1 1.968-1.92c.704-.64 1.584-1.312 2.64-2.016a30.141 30.141 0 0 1 3.216-1.824c1.088-.512 1.952-.768 2.592-.768.224 0 .384.016.48.048l-.528.96-1.344 2.448c-.512.992-1.056 2.064-1.632 3.216a54.928 54.928 0 0 0-1.44 3.312c-.416 1.024-.688 1.872-.816 2.544a7.236 7.236 0 0 0-.144 1.296c0 .512.096.864.288 1.056.192.16.4.24.624.24.544 0 1.136-.336 1.776-1.008.64-.672 1.264-1.488 1.872-2.448a45.748 45.748 0 0 0 1.632-2.88c.512-.928.896-1.648 1.152-2.16.192-.352.384-.528.576-.528.192 0 .288.128.288.384 0 .128-.048.32-.144.576a266.68 266.68 0 0 1-1.44 2.832 23.555 23.555 0 0 1-1.776 2.976c-.64.928-1.36 1.696-2.16 2.304-.768.608-1.6.912-2.496.912-.64 0-1.296-.224-1.968-.672-.672-.448-1.008-1.264-1.008-2.448 0-.352.032-.72.096-1.104.064-.416.176-.88.336-1.392.192-.64.512-1.344.96-2.112.448-.8 1.024-1.792 1.728-2.976.32-.544.48-.976.48-1.296 0-.384-.192-.576-.576-.576-.32 0-.752.16-1.296.48-.544.32-1.232.88-2.064 1.68-.8.768-1.792 1.888-2.976 3.36s-2.448 3.536-3.792 6.192c-.224.416-.48.64-.768.672-.256 0-.608.016-1.056.048a7.818 7.818 0 0 1-.864.048 1.324 1.324 0 0 0-.72.288ZM37.48 67.6h3.392l1.568 17.216h.064L44.168 67.6h3.84l1.664 17.216h.064L51.304 67.6h3.04L52.072 90h-4.384l-1.6-15.104h-.064L44.424 90h-4.672L37.48 67.6Zm18.645 0h9.6v3.2h-6.08v5.92h4.831v3.2h-4.831v6.88h6.08V90h-9.6V67.6Zm11.624 0h5.313c1.813 0 3.136.427 3.968 1.28.832.832 1.248 2.123 1.248 3.872v.896c0 1.152-.193 2.09-.577 2.816a3.212 3.212 0 0 1-1.695 1.568v.064c1.749.597 2.623 2.155 2.623 4.672v1.92c0 1.728-.458 3.05-1.376 3.968-.895.896-2.218 1.344-3.968 1.344H67.75V67.6Zm4.897 9.12c.704 0 1.226-.181 1.567-.544.363-.363.544-.97.544-1.824v-1.248c0-.81-.149-1.397-.448-1.76-.277-.363-.725-.544-1.343-.544h-1.697v5.92h1.376Zm.64 10.08c.618 0 1.077-.16 1.376-.48.298-.341.447-.917.447-1.728V82.64c0-1.024-.18-1.728-.543-2.112-.342-.405-.918-.608-1.728-.608h-1.569v6.88h2.016Zm12.526-19.2h5.376c1.75 0 3.061.47 3.936 1.408.875.939 1.312 2.315 1.312 4.128v11.328c0 1.813-.437 3.19-1.312 4.128-.875.939-2.187 1.408-3.936 1.408h-5.376V67.6Zm5.312 19.2c.576 0 1.013-.17 1.312-.512.32-.341.48-.896.48-1.664V72.976c0-.768-.16-1.323-.48-1.664-.299-.341-.736-.512-1.312-.512h-1.792v16h1.792Zm7.688-19.2h9.6v3.2h-6.08v5.92h4.832v3.2h-4.832v6.88h6.08V90h-9.6V67.6Zm10.697 0h3.552l2.304 17.376h.064l2.304-17.376h3.232L117.573 90h-4.672l-3.392-22.4Zm13.147 0h9.6v3.2h-6.08v5.92h4.832v3.2h-4.832v6.88h6.08V90h-9.6V67.6Zm11.625 0h3.52v19.2h5.792V90h-9.312V67.6Zm15.963 22.72c-1.728 0-3.051-.49-3.968-1.472-.918-.981-1.376-2.368-1.376-4.16V72.912c0-1.792.458-3.179 1.376-4.16.917-.981 2.24-1.472 3.968-1.472 1.728 0 3.05.49 3.968 1.472.917.981 1.376 2.368 1.376 4.16v11.776c0 1.792-.459 3.179-1.376 4.16-.918.981-2.24 1.472-3.968 1.472Zm0-3.2c1.216 0 1.824-.736 1.824-2.208V72.688c0-1.472-.608-2.208-1.824-2.208-1.216 0-1.824.736-1.824 2.208v12.224c0 1.472.608 2.208 1.824 2.208Zm7.724-19.52h5.184c1.75 0 3.062.47 3.936 1.408.875.939 1.312 2.315 1.312 4.128v2.208c0 1.813-.437 3.19-1.312 4.128-.874.939-2.186 1.408-3.936 1.408h-1.664V90h-3.52V67.6Zm5.184 10.08c.576 0 1.003-.16 1.28-.48.299-.32.448-.864.448-1.632v-2.656c0-.768-.149-1.312-.448-1.632-.277-.32-.704-.48-1.28-.48h-1.664v6.88h1.664Zm7.16-10.08h9.6v3.2h-6.08v5.92h4.832v3.2h-4.832v6.88h6.08V90h-9.6V67.6Zm11.625 0h5.216c1.813 0 3.136.427 3.968 1.28.832.832 1.248 2.123 1.248 3.872v1.376c0 2.325-.768 3.797-2.304 4.416v.064c.853.256 1.451.779 1.792 1.568.363.79.544 1.845.544 3.168v3.936c0 .64.021 1.163.064 1.568.043.384.149.768.32 1.152h-3.584a5.154 5.154 0 0 1-.256-1.024c-.043-.32-.064-.896-.064-1.728v-4.096c0-1.024-.171-1.739-.512-2.144-.32-.405-.885-.608-1.696-.608h-1.216V90h-3.52V67.6Zm4.8 9.6c.704 0 1.227-.181 1.568-.544.363-.363.544-.97.544-1.824v-1.728c0-.81-.149-1.397-.448-1.76-.277-.363-.725-.544-1.344-.544h-1.6v6.4h1.28ZM6 81h20m178 0h20"/></svg><svg viewBox="0 0 96 96" id="mail" xmlns="http://www.w3.org/2000/svg"><path fill-rule="evenodd" clip-rule="evenodd" d="M1.5 16A4.5 4.5 0 0 1 6 11.5h84a4.5 4.5 0 0 1 4.5 4.5v64a4.5 4.5 0 0 1-4.5 4.5H6A4.5 4.5 0 0 1 1.5 80V16Zm88.11-1.5H6.39c-1.41 0-2.04 1.767-.951 2.66l39.708 32.56a4.5 4.5 0 0 0 5.706 0l39.708-32.56c1.09-.893.458-2.66-.95-2.66ZM4.5 20.27v55.46L38.317 48 4.5 20.27Zm36.183 29.67L5.439 78.84c-1.09.893-.458 2.66.95 2.66H89.61c1.41 0 2.04-1.767.951-2.66l-35.244-28.9-2.561 2.1a7.5 7.5 0 0 1-9.512 0l-2.561-2.1Zm17-1.94L91.5 20.27v55.46L57.683 48Z"/></svg><svg xml:space="preserve" viewBox="0 0 80 80" id="mark" xmlns="http://www.w3.org/2000/svg"><path d="m2.711 43.997 6.284-6.285 17.502 18.002 44.505-45.005 6.289 6.289-50.793 50.3z"/><path d="m71.004 11.418 5.578 5.578-50.086 49.6L3.422 43.993l5.568-5.568 16.793 17.273.711.731.717-.725 43.793-44.286M71 10 26.5 55 9 37l-7 7 24.5 24L78 17l-7-7z"/></svg><svg viewBox="0 0 493.665 493.665" xml:space="preserve" id="moon" xmlns="http://www.w3.org/2000/svg"><path d="M186.364 371.744c-28.084 0-55.039-6.292-80.099-18.704l-43.13-21.354 21.354 43.13c36.286 73.312 109.589 118.848 191.298 118.848 117.653 0 213.375-95.722 213.375-213.375 0-81.708-45.536-155.012-118.848-191.298l-43.138-21.354 21.354 43.138c12.404 25.069 18.696 52.015 18.696 80.107-.001 99.723-81.133 180.862-180.862 180.862zm197.118-180.861c0-31.36-7.356-60.989-20.386-87.317 65.053 32.205 109.801 99.226 109.801 176.731 0 108.866-88.252 197.118-197.118 197.118-77.506 0-144.526-44.748-176.731-109.801 26.32 13.03 55.957 20.386 87.317 20.386 108.865.001 197.117-88.251 197.117-197.117z"/><path d="m43.724 318.656 63.46-46.097 63.46 46.105-24.239-74.596 63.46-46.105h-78.449l-24.239-74.596-24.239 74.596H4.503l63.452 46.105-24.231 74.588zM54.535 214.22h40.212l12.429-38.245 12.429 38.245h40.212l-32.539 23.638 12.429 38.237-32.531-23.63-32.539 23.638 12.429-38.245-32.531-23.638z"/><path d="m165.14 171.651 55.77-40.529 55.77 40.521-21.297-65.565 55.77-40.513h-68.938L220.91 0l-21.305 65.565h-68.938l55.77 40.521-21.297 65.565zm15.566-89.829h30.718l9.486-29.206 9.486 29.206h30.718l-24.849 18.054 9.494 29.206-24.849-18.045-24.849 18.054 9.494-29.206-24.849-18.063z"/></svg><svg viewBox="0 0 512 145" preserveAspectRatio="xMinYMin meet" id="node-js" xmlns="http://www.w3.org/2000/svg"><path d="M471.05 51.611c-1.244 0-2.454.257-3.525.863l-33.888 19.57c-2.193 1.264-3.526 3.65-3.526 6.189v39.069c0 2.537 1.333 4.92 3.526 6.187l8.85 5.109c4.3 2.119 5.885 2.086 7.842 2.086 6.366 0 10.001-3.863 10.001-10.576V81.542c0-.545-.472-.935-1.007-.935h-4.245c-.544 0-1.007.39-1.007.935v38.566c0 2.975-3.1 5.968-8.13 3.453l-9.21-5.396c-.326-.177-.576-.49-.576-.863v-39.07c0-.37.247-.747.576-.935L470.547 57.8a.998.998 0 0 1 1.007 0l33.817 19.498c.322.194.576.553.576.936v39.069c0 .373-.188.755-.504.935l-33.889 19.498c-.29.173-.69.173-1.007 0l-8.706-5.18a.905.905 0 0 0-.863 0c-2.403 1.362-2.855 1.52-5.109 2.302-.555.194-1.398.495.288 1.44l11.368 6.69a6.995 6.995 0 0 0 3.526.936 6.949 6.949 0 0 0 3.525-.935l33.889-19.499c2.193-1.275 3.525-3.65 3.525-6.187v-39.07c0-2.538-1.332-4.92-3.525-6.187l-33.889-19.57c-1.062-.607-2.28-.864-3.525-.864z"/><path d="M480.116 79.528c-9.65 0-15.397 4.107-15.397 10.937 0 7.408 5.704 9.444 14.966 10.36 11.08 1.085 11.943 2.712 11.943 4.893 0 3.783-3.016 5.396-10.144 5.396-8.957 0-10.925-2.236-11.584-6.691-.078-.478-.447-.864-.936-.864h-4.389c-.54 0-1.007.466-1.007 1.008 0 5.703 3.102 12.447 17.916 12.447 10.723 0 16.908-4.209 16.908-11.584 0-7.31-4.996-9.273-15.398-10.648-10.51-1.391-11.512-2.072-11.512-4.533 0-2.032.85-4.75 8.634-4.75 6.954 0 9.524 1.5 10.577 6.189.092.44.48.791.935.791h4.39c.27 0 .532-.166.719-.36.184-.207.314-.44.288-.719-.68-8.074-6.064-11.872-16.909-11.872zM271.821.383a2.181 2.181 0 0 0-1.08.287 2.18 2.18 0 0 0-1.079 1.871v55.042c0 .54-.251 1.024-.719 1.295a1.501 1.501 0 0 1-1.511 0l-8.994-5.18a4.31 4.31 0 0 0-4.317 0l-35.903 20.721c-1.342.775-2.158 2.264-2.158 3.814v41.443c0 1.548.817 2.966 2.158 3.741l35.903 20.722a4.3 4.3 0 0 0 4.317 0l35.903-20.722a4.308 4.308 0 0 0 2.159-3.741V16.356a4.386 4.386 0 0 0-2.23-3.814L272.9.598c-.335-.187-.707-.22-1.079-.215zM40.861 52.115c-.684.027-1.328.147-1.942.503L3.015 73.34a4.3 4.3 0 0 0-2.158 3.741L.929 132.7c0 .773.399 1.492 1.079 1.87a2.096 2.096 0 0 0 2.159 0l21.297-12.231c1.349-.802 2.23-2.196 2.23-3.742V92.623c0-1.55.815-2.972 2.159-3.742l9.065-5.252a4.251 4.251 0 0 1 2.159-.576c.74 0 1.5.185 2.158.576l9.066 5.252a4.296 4.296 0 0 1 2.159 3.742v25.973c0 1.546.89 2.95 2.23 3.742l21.297 12.232a2.096 2.096 0 0 0 2.159 0 2.164 2.164 0 0 0 1.08-1.871l.07-55.618a4.28 4.28 0 0 0-2.158-3.741L43.235 52.618c-.607-.356-1.253-.475-1.942-.503h-.432zm322.624.503c-.75 0-1.485.19-2.158.576l-35.903 20.722a4.306 4.306 0 0 0-2.159 3.741V119.1c0 1.559.878 2.971 2.23 3.742l35.616 20.29c1.315.75 2.921.807 4.245.07l21.585-12.015c.685-.38 1.148-1.09 1.151-1.87a2.126 2.126 0 0 0-1.079-1.871l-36.119-20.722c-.676-.386-1.151-1.167-1.151-1.943v-12.95c0-.775.48-1.485 1.151-1.871l11.224-6.476a2.155 2.155 0 0 1 2.159 0L375.5 89.96a2.152 2.152 0 0 1 1.08 1.87v10.217a2.15 2.15 0 0 0 1.079 1.87c.673.389 1.487.39 2.158 0L401.331 91.4a4.325 4.325 0 0 0 2.159-3.742v-10c0-1.545-.82-2.966-2.159-3.742l-35.687-20.722a4.279 4.279 0 0 0-2.159-.575zm-107.35 30.939c.188 0 .408.046.576.143l12.304 7.123c.334.193.576.55.576.935v14.246c0 .387-.24.743-.576.936l-12.304 7.123a1.088 1.088 0 0 1-1.079 0l-12.303-7.123c-.335-.194-.576-.549-.576-.936V91.758c0-.386.242-.74.576-.935l12.303-7.122a.948.948 0 0 1 .504-.143v-.001z"/><path d="M148.714 52.402c-.748 0-1.488.19-2.158.576l-35.903 20.65c-1.343.773-2.159 2.265-2.159 3.813v41.443c0 1.55.817 2.966 2.159 3.742l35.903 20.721a4.297 4.297 0 0 0 4.317 0l35.903-20.721a4.308 4.308 0 0 0 2.158-3.742V77.441c0-1.55-.816-3.04-2.158-3.813l-35.903-20.65a4.297 4.297 0 0 0-2.159-.576zm214.699 36.983c-.143 0-.302 0-.431.072l-6.907 4.029a.84.84 0 0 0-.432.72v7.914a.84.84 0 0 0 .432.72l6.907 3.957c.259.15.535.15.791 0l6.907-3.958a.846.846 0 0 0 .432-.719v-7.915a.846.846 0 0 0-.432-.719l-6.907-4.03c-.128-.075-.216-.07-.36-.07z"/></svg><svg version="1.0" viewBox="0 0 128 128" xml:space="preserve" id="spinner" xmlns="http://www.w3.org/2000/svg"><g><path d="M59.6 0h8v40h-8V0zM92.19 6.374l6.928 4-20 34.641-6.929-4 20-34.64zm25.036 21.816 4 6.928-34.641 20-4-6.929 34.64-20zM128 59.6v8H88v-8h40zm-6.374 32.59-4 6.928-34.641-20 4-6.929 34.64 20zM99.81 117.226l-6.928 4-20-34.641 6.929-4 20 34.64zM68.4 128h-8V88h8v40zM35.81 121.626l-6.928-4 20-34.641 6.929 4-20 34.64zM10.774 99.81l-4-6.928 34.641-20 4 6.929-34.64 20zM0 68.4v-8h40v8H0zM6.374 35.81l4-6.928 34.641 20-4 6.929-34.64-20zM28.19 10.774l6.928-4 20 34.641-6.929 4-20-34.64z"/><animateTransform attributeName="transform" type="rotate" values="0 64 64;30 64 64;60 64 64;90 64 64;120 64 64;150 64 64;180 64 64;210 64 64;240 64 64;270 64 64;300 64 64;330 64 64" calcMode="discrete" dur="1080ms" repeatCount="indefinite"/></g></svg><svg version="1.0" viewBox="0 0 1280 959" id="success" xmlns="http://www.w3.org/2000/svg"><path d="M1224.3 1.5c-2.9.8-7 2.3-9.1 3.4C1213 6 1032 126.4 812.7 272.4 593.5 418.5 413.6 538.2 412.8 538.5c-.7.2-78.2-57.4-172.3-128.2C129.1 326.5 67.3 280.7 63.2 278.7c-5.1-2.4-8.1-3.1-15.3-3.5-10.1-.5-15.5.6-24.1 5.1C4 290.6-5.1 315.4 3.3 335.8 4.6 339 80.5 463 172 611.5 263.4 760 346.4 894.8 356.4 911c11.8 19.3 19.9 31.3 23.2 34.7 14.4 14.6 36.8 17.2 55.1 6.5 3.1-1.8 65.8-67.2 195.1-203.7 104.9-110.6 207.3-218.6 227.7-240 62.6-66 394.7-416.5 407.8-430.4 15-15.9 18.5-34.6 10-52.8-3.3-7-12.9-16.9-19.6-20.2-10.5-5.1-21.3-6.3-31.4-3.6z"/></svg><svg viewBox="0 0 330 330" id="up-arrow" xmlns="http://www.w3.org/2000/svg"><path d="m325.606 229.393-150.004-150a14.997 14.997 0 0 0-21.213.001l-149.996 150c-5.858 5.858-5.858 15.355 0 21.213 5.857 5.857 15.355 5.858 21.213 0l139.39-139.393 139.397 139.393A14.953 14.953 0 0 0 315 255a14.95 14.95 0 0 0 10.607-4.394c5.857-5.858 5.857-15.355-.001-21.213z"/></svg><svg version="1.0" viewBox="0 0 137.6 137.6" id="wrong" xmlns="http://www.w3.org/2000/svg"><g transform="translate(-321.034 -363.196) scale(.90287)"><path id="sa" d="m371.573 418.27 120.403 120.404"/><use height="1052.362" width="744.094" transform="matrix(-1 0 0 1 863.549 0)" xlink:href="#sa"/></g></svg></svg>