<svg width="234" height="103" viewBox="0 0 234 103" fill="none" xmlns="http://www.w3.org/2000/svg">
<path d="M65.52 46.52C65.04 46.456 64.384 46.328 63.552 46.136C62.72 45.976 61.872 45.64 61.008 45.128C60.144 44.616 59.408 43.832 58.8 42.776C58.192 41.752 57.888 40.376 57.888 38.648C57.888 36.664 58.288 34.488 59.088 32.12C59.92 29.72 60.928 27.224 62.112 24.632C63.296 22.04 64.432 19.48 65.52 16.952C66.384 14.936 66.816 13.4 66.816 12.344C66.816 11.288 66.416 10.76 65.616 10.76C64.72 10.76 63.376 11.48 61.584 12.92C59.824 14.328 57.776 16.472 55.44 19.352C54.832 20.12 54.048 21.192 53.088 22.568C52.128 23.912 51.104 25.416 50.016 27.08C48.928 28.712 47.856 30.376 46.8 32.072C45.776 33.736 44.864 35.272 44.064 36.68C43.296 38.088 42.736 39.208 42.384 40.04C41.968 41.032 41.488 41.704 40.944 42.056C40.4 42.44 39.888 42.632 39.408 42.632C38.992 42.632 38.624 42.52 38.304 42.296C38.016 42.072 37.872 41.8 37.872 41.48C37.872 41.288 37.92 41.128 38.016 41C38.208 40.616 38.72 39.688 39.552 38.216C40.384 36.744 41.328 34.792 42.384 32.36C43.44 29.896 44.448 27.048 45.408 23.816C46.4 20.552 47.136 16.952 47.616 13.016C47.68 12.568 47.712 12.088 47.712 11.576C47.712 10.456 47.52 9.64 47.136 9.128C46.752 8.584 46.24 8.312 45.6 8.312C44.896 8.312 44.096 8.616 43.2 9.224C42.304 9.832 41.392 10.712 40.464 11.864C38.864 13.88 37.456 15.752 36.24 17.48C35.024 19.176 33.904 20.872 32.88 22.568C31.888 24.264 30.896 26.072 29.904 27.992C28.944 29.912 27.92 32.072 26.832 34.472C25.744 36.84 24.496 39.592 23.088 42.728C22.864 43.24 22.48 43.608 21.936 43.832C21.424 44.056 20.944 44.168 20.496 44.168C20.048 44.168 19.68 44.072 19.392 43.88C19.104 43.688 19.008 43.416 19.104 43.064C19.936 41.784 20.832 40.168 21.792 38.216C22.752 36.264 23.712 34.136 24.672 31.832C25.664 29.496 26.576 27.144 27.408 24.776C28.272 22.376 29.008 20.12 29.616 18.008C30.224 15.864 30.64 14.008 30.864 12.44C30.928 11.928 30.976 11.448 31.008 11C31.04 10.552 31.056 10.12 31.056 9.704C31.056 7.24 30.528 5.48 29.472 4.424C28.448 3.368 27.12 2.84 25.488 2.84C24.112 2.84 22.608 3.16 20.976 3.8C19.376 4.408 17.744 5.256 16.08 6.344C14.448 7.432 12.88 8.696 11.376 10.136C9.872 11.544 8.544 13.064 7.392 14.696C6.24 16.296 5.36 17.928 4.752 19.592C4.336 20.776 4.016 21.912 3.792 23C3.6 24.056 3.504 25.048 3.504 25.976C3.504 27.768 3.824 29.288 4.464 30.536C5.136 31.784 6.016 32.728 7.104 33.368C8.224 34.008 9.424 34.328 10.704 34.328C11.152 34.328 11.648 34.28 12.192 34.184C12.768 34.056 13.248 33.928 13.632 33.8C14.56 33.448 15.456 32.904 16.32 32.168C17.184 31.4 17.952 30.52 18.624 29.528C19.296 28.536 19.824 27.528 20.208 26.504C20.592 25.48 20.784 24.52 20.784 23.624C20.784 22.696 20.528 21.928 20.016 21.32C19.504 20.712 18.688 20.408 17.568 20.408C17.44 20.408 17.296 20.424 17.136 20.456C17.008 20.456 16.864 20.456 16.704 20.456H16.56C16.336 20.456 16.128 20.424 15.936 20.36C15.744 20.264 15.648 20.152 15.648 20.024C15.648 19.896 15.808 19.752 16.128 19.592C16.48 19.432 17.104 19.352 18 19.352C19.44 19.352 20.512 19.784 21.216 20.648C21.952 21.48 22.32 22.552 22.32 23.864C22.32 25.048 22 26.328 21.36 27.704C20.72 29.08 19.76 30.392 18.48 31.64C17.2 32.888 15.584 33.912 13.632 34.712C12.48 35.16 11.36 35.384 10.272 35.384C8.672 35.384 7.152 34.984 5.712 34.184C4.272 33.352 3.104 32.184 2.208 30.68C1.312 29.144 0.864 27.336 0.864 25.256C0.864 24.328 0.96 23.352 1.152 22.328C1.376 21.272 1.728 20.184 2.208 19.064C3.264 16.6 4.688 14.328 6.48 12.248C8.304 10.136 10.32 8.312 12.528 6.776C14.736 5.208 16.976 3.992 19.248 3.128C21.52 2.264 23.632 1.832 25.584 1.832C27.952 1.832 29.904 2.536 31.44 3.944C33.008 5.352 33.792 7.624 33.792 10.76C33.792 10.984 33.776 11.288 33.744 11.672C33.744 12.024 33.728 12.296 33.696 12.488C33.504 14.12 33.168 15.752 32.688 17.384C32.24 19.016 31.744 20.584 31.2 22.088C31.104 22.344 31.024 22.616 30.96 22.904C30.928 23.16 30.912 23.336 30.912 23.432C30.912 23.592 30.944 23.672 31.008 23.672C31.136 23.672 31.392 23.336 31.776 22.664C32.512 21.32 33.168 20.152 33.744 19.16C34.352 18.136 34.944 17.208 35.52 16.376C36.096 15.544 36.72 14.696 37.392 13.832C38.064 12.968 38.832 12.008 39.696 10.952C40.688 9.768 41.824 8.824 43.104 8.12C44.384 7.416 45.616 7.064 46.8 7.064C47.856 7.064 48.752 7.416 49.488 8.12C50.224 8.824 50.592 10.024 50.592 11.72C50.592 11.912 50.592 12.072 50.592 12.2C50.592 12.328 50.576 12.52 50.544 12.776C50.256 15.848 49.648 18.872 48.72 21.848C47.792 24.792 46.832 27.768 45.84 30.776C46.832 29.24 48.176 27.288 49.872 24.92C51.568 22.552 53.424 20.104 55.44 17.576C57.904 14.504 60.192 12.2 62.304 10.664C64.416 9.128 66.16 8.36 67.536 8.36C69.264 8.36 70.128 9.416 70.128 11.528C70.128 12.328 69.968 13.288 69.648 14.408C69.36 15.528 68.896 16.712 68.256 17.96C67.552 19.368 66.768 21 65.904 22.856C65.072 24.68 64.272 26.6 63.504 28.616C62.736 30.632 62.096 32.616 61.584 34.568C61.104 36.488 60.864 38.264 60.864 39.896C60.864 41.656 61.264 43.08 62.064 44.168C62.896 45.288 64.32 45.816 66.336 45.752H66.624C67.104 45.752 67.344 45.848 67.344 46.04C67.344 46.168 67.184 46.296 66.864 46.424C66.544 46.552 66.096 46.584 65.52 46.52ZM72.189 21.512C71.709 21.512 71.309 21.352 70.989 21.032C70.701 20.68 70.557 20.264 70.557 19.784C70.557 19.176 70.797 18.648 71.277 18.2C71.757 17.752 72.285 17.528 72.861 17.528C73.373 17.528 73.789 17.688 74.109 18.008C74.429 18.328 74.589 18.712 74.589 19.16C74.589 19.768 74.349 20.312 73.869 20.792C73.389 21.272 72.829 21.512 72.189 21.512ZM68.301 41C67.117 41 66.285 40.664 65.805 39.992C65.325 39.288 65.085 38.488 65.085 37.592C65.085 37.112 65.133 36.632 65.229 36.152C65.357 35.64 65.501 35.176 65.661 34.76L68.877 26.552C68.973 26.296 69.021 26.072 69.021 25.88C69.021 25.56 68.941 25.288 68.781 25.064C68.621 24.808 68.509 24.632 68.445 24.536L71.085 24.44C71.565 24.408 71.901 24.472 72.093 24.632C72.317 24.76 72.429 24.92 72.429 25.112C72.429 25.304 72.317 25.656 72.093 26.168L68.109 35.528C68.109 35.528 68.013 35.736 67.821 36.152C67.661 36.536 67.565 36.792 67.533 36.92C67.437 37.4 67.373 37.704 67.341 37.832C67.309 37.96 67.293 38.04 67.293 38.072C67.293 38.104 67.293 38.232 67.293 38.456C67.293 38.872 67.389 39.224 67.581 39.512C67.805 39.8 68.173 39.944 68.685 39.944C69.005 39.944 69.373 39.848 69.789 39.656C70.205 39.464 70.509 39.272 70.701 39.08C71.501 38.248 72.285 37.16 73.053 35.816C73.853 34.44 74.589 33.08 75.261 31.736C75.389 31.416 75.549 31.256 75.741 31.256C75.901 31.256 75.981 31.368 75.981 31.592C75.981 31.72 75.933 31.912 75.837 32.168C75.517 32.84 75.117 33.672 74.637 34.664C74.157 35.656 73.581 36.648 72.909 37.64C72.269 38.6 71.565 39.4 70.797 40.04C70.029 40.68 69.197 41 68.301 41ZM83.9385 41.336C83.0745 41.24 82.2905 40.84 81.5865 40.136C80.9145 39.4 80.4505 38.424 80.1945 37.208C80.1625 36.984 80.1305 36.792 80.0985 36.632C80.0985 36.44 80.0985 36.232 80.0985 36.008C80.0985 34.728 80.3865 33.704 80.9625 32.936C81.5385 32.136 82.0665 31.72 82.5465 31.688C83.0585 31.72 83.6825 31.608 84.4185 31.352C85.1545 31.064 85.7945 30.68 86.3385 30.2C87.2665 29.464 87.7305 28.712 87.7305 27.944C87.7305 27.144 87.2665 26.744 86.3385 26.744C85.8265 26.744 85.1705 26.92 84.3705 27.272C83.6025 27.624 82.7065 28.232 81.6825 29.096C80.4025 30.184 79.0745 31.64 77.6985 33.464C77.5065 33.88 77.2825 34.504 77.0265 35.336C76.7705 36.136 76.5465 36.968 76.3545 37.832C76.1945 38.696 76.1145 39.432 76.1145 40.04C76.1145 40.52 76.1945 40.84 76.3545 41H73.3305C72.9785 41 72.8025 40.856 72.8025 40.568C72.8025 40.472 72.8185 40.392 72.8505 40.328C72.8825 40.264 72.9145 40.136 72.9465 39.944C73.3945 38.28 73.9865 36.712 74.7225 35.24C75.4585 33.768 76.1945 32.216 76.9305 30.584C75.8105 32.664 74.7865 34.504 73.8585 36.104C72.9625 37.672 72.2745 38.68 71.7945 39.128C71.7305 39.192 71.6505 39.224 71.5545 39.224C71.4265 39.224 71.3465 39.144 71.3145 38.984C71.2505 38.824 71.2825 38.664 71.4105 38.504C72.0825 37.608 72.8505 36.376 73.7145 34.808C74.6105 33.24 75.5545 31.496 76.5465 29.576C77.5385 27.624 78.5465 25.656 79.5705 23.672C80.5945 21.688 81.5865 19.816 82.5465 18.056C83.5385 16.296 84.4345 14.808 85.2345 13.592C85.8105 12.728 86.3545 12.12 86.8665 11.768C87.3785 11.384 87.9065 11.192 88.4505 11.192H88.6905C88.9785 11.192 89.2985 11.24 89.6505 11.336C90.0345 11.432 90.3865 11.448 90.7065 11.384C90.0985 11.864 89.3625 12.648 88.4985 13.736C87.6345 14.824 86.7225 16.12 85.7625 17.624C84.8025 19.128 83.8265 20.728 82.8345 22.424C81.8745 24.12 80.9625 25.8 80.0985 27.464C79.7785 28.104 79.4745 28.776 79.1865 29.48C78.8985 30.184 78.6265 30.888 78.3705 31.592C79.0425 30.76 79.8105 29.896 80.6745 29C81.5385 28.104 82.4345 27.288 83.3625 26.552C84.3225 25.784 85.2665 25.224 86.1945 24.872C87.2505 24.488 88.1305 24.296 88.8345 24.296C89.5705 24.296 90.0985 24.472 90.4185 24.824C90.7705 25.176 90.9465 25.624 90.9465 26.168C90.9465 26.776 90.7065 27.512 90.2265 28.376C89.7465 29.208 89.0905 29.928 88.2585 30.536C87.5545 31.016 86.8185 31.432 86.0505 31.784C85.2825 32.136 84.3705 32.36 83.3145 32.456C83.1225 32.904 82.9785 33.368 82.8825 33.848C82.8185 34.296 82.7865 34.744 82.7865 35.192C82.7865 36.44 83.0745 37.544 83.6505 38.504C84.2265 39.432 84.9785 39.896 85.9065 39.896C86.3545 39.896 86.8345 39.768 87.3465 39.512C87.8905 39.256 88.4505 38.824 89.0265 38.216C89.6665 37.576 90.3065 36.664 90.9465 35.48C91.6185 34.296 92.2905 33 92.9625 31.592C93.0905 31.336 93.2345 31.208 93.3945 31.208C93.5865 31.208 93.6825 31.336 93.6825 31.592C93.6825 31.72 93.6345 31.88 93.5385 32.072C92.6105 34.216 91.7145 35.928 90.8505 37.208C90.0185 38.456 89.2025 39.4 88.4025 40.04C87.6345 40.648 86.8825 41.032 86.1465 41.192C85.4105 41.352 84.6745 41.4 83.9385 41.336ZM96.1429 41.192C94.9589 41.192 93.8869 40.808 92.9269 40.04C91.9989 39.272 91.5349 38.104 91.5349 36.536C91.5349 35.096 91.8869 33.56 92.5909 31.928C93.2949 30.264 94.1909 28.808 95.2789 27.56C96.2069 26.472 97.2469 25.576 98.3989 24.872C99.5509 24.168 100.639 23.816 101.663 23.816C102.367 23.816 102.975 24.008 103.487 24.392C104.031 24.808 104.303 25.4 104.303 26.168C104.303 26.968 103.999 27.848 103.391 28.808C102.783 29.768 101.919 30.664 100.799 31.496C100.319 31.848 99.7109 32.184 98.9749 32.504C98.2389 32.824 97.5029 33.096 96.7669 33.32C96.0309 33.512 95.4229 33.608 94.9429 33.608C94.7829 33.992 94.6229 34.504 94.4629 35.144C94.3349 35.784 94.2709 36.44 94.2709 37.112C94.2709 37.912 94.4309 38.632 94.7509 39.272C95.0709 39.912 95.6629 40.232 96.5269 40.232C97.5829 40.232 98.5429 39.928 99.4069 39.32C100.271 38.712 101.039 37.96 101.711 37.064C102.383 36.136 102.943 35.208 103.391 34.28C103.871 33.352 104.255 32.568 104.543 31.928C104.735 31.48 104.991 31.256 105.311 31.256C105.471 31.256 105.551 31.336 105.551 31.496C105.551 31.624 105.503 31.784 105.407 31.976C104.959 32.936 104.479 33.96 103.967 35.048C103.455 36.104 102.847 37.112 102.143 38.072C101.439 39 100.591 39.752 99.5989 40.328C98.6389 40.904 97.4869 41.192 96.1429 41.192ZM95.2789 32.744C95.7269 32.744 96.4789 32.584 97.5349 32.264C98.5909 31.912 99.5509 31.368 100.415 30.632C101.247 29.896 101.887 29.096 102.335 28.232C102.783 27.336 103.007 26.584 103.007 25.976C103.007 25.272 102.751 24.92 102.239 24.92C101.855 24.92 101.327 25.176 100.655 25.688C99.9829 26.2 99.1509 27.064 98.1589 28.28C97.5509 29.048 96.9749 29.88 96.4309 30.776C95.8869 31.672 95.5029 32.328 95.2789 32.744ZM122.966 42.872C122.262 42.872 121.542 42.824 120.806 42.728C118.79 42.472 117.302 41.88 116.342 40.952C115.414 40.024 114.95 39.016 114.95 37.928C114.95 36.744 115.478 35.672 116.534 34.712C117.59 33.72 119.078 33.224 120.998 33.224C122.278 33.224 123.67 33.48 125.174 33.992C126.006 34.28 126.998 34.76 128.15 35.432C129.302 36.104 130.63 36.808 132.134 37.544C133.734 36.008 135.19 34.104 136.502 31.832C137.846 29.56 139.174 27.128 140.486 24.536C141.83 21.912 143.27 19.288 144.806 16.664C146.374 14.04 148.182 11.576 150.23 9.272L153.014 6.152C151.83 5.96 150.598 5.816 149.318 5.72C148.038 5.592 146.71 5.528 145.334 5.528C143.606 5.528 141.83 5.624 140.006 5.816C138.182 5.976 136.358 6.248 134.534 6.632C131.526 7.272 128.982 8.296 126.902 9.704C124.822 11.112 123.238 12.648 122.15 14.312C121.094 15.944 120.566 17.48 120.566 18.92C120.566 19.912 120.838 20.808 121.382 21.608C121.958 22.376 122.806 22.936 123.926 23.288C124.63 23.512 125.35 23.624 126.086 23.624C127.174 23.624 128.134 23.4 128.966 22.952C129.798 22.504 130.502 21.96 131.078 21.32C131.654 20.648 132.07 20.008 132.326 19.4C132.614 18.792 132.742 18.344 132.71 18.056C132.71 17.832 132.87 17.72 133.19 17.72C133.51 17.72 133.67 17.96 133.67 18.44V18.488C133.67 19.8 133.27 20.936 132.47 21.896C131.67 22.856 130.662 23.592 129.446 24.104C128.262 24.616 127.062 24.872 125.846 24.872C125.078 24.872 124.278 24.744 123.446 24.488C121.718 23.88 120.438 23 119.606 21.848C118.774 20.664 118.358 19.368 118.358 17.96C118.358 16.648 118.71 15.304 119.414 13.928C120.15 12.52 121.222 11.192 122.63 9.944C124.038 8.664 125.782 7.56 127.862 6.632C129.974 5.704 132.406 5.048 135.158 4.664C136.63 4.44 138.086 4.28 139.526 4.184C140.966 4.088 142.358 4.04 143.702 4.04C145.558 4.04 147.366 4.136 149.126 4.328C150.918 4.488 152.598 4.744 154.166 5.096C154.614 4.712 155.062 4.376 155.51 4.088C155.99 3.8 156.422 3.576 156.806 3.416C157.03 3.32 157.222 3.256 157.382 3.224C157.542 3.192 157.67 3.176 157.766 3.176C157.958 3.176 158.054 3.24 158.054 3.368C158.054 3.528 157.814 3.784 157.334 4.136C157.014 4.36 156.71 4.616 156.422 4.904C156.134 5.16 155.958 5.352 155.894 5.48C159.158 6.312 161.798 7.464 163.814 8.936C165.862 10.376 166.886 12.088 166.886 14.072C166.886 15.096 166.55 16.216 165.878 17.432C165.174 18.616 164.198 19.576 162.95 20.312C161.702 21.016 160.374 21.544 158.966 21.896C157.558 22.216 156.246 22.408 155.03 22.472C156.086 22.792 157.238 23.272 158.486 23.912C159.766 24.52 160.934 25.272 161.99 26.168C163.078 27.064 163.798 28.12 164.15 29.336C164.374 30.104 164.486 30.888 164.486 31.688C164.486 33.384 163.99 34.92 162.998 36.296C162.038 37.672 160.742 38.856 159.11 39.848C157.51 40.808 155.75 41.544 153.83 42.056C151.91 42.6 150.006 42.872 148.118 42.872C147.414 42.872 146.694 42.824 145.958 42.728C142.886 42.344 140.342 41.864 138.326 41.288C136.342 40.712 134.598 40.072 133.094 39.368C129.99 41.704 126.614 42.872 122.966 42.872ZM147.446 41.48C149.43 41.48 151.238 41.176 152.87 40.568C154.502 39.96 155.91 39.16 157.094 38.168C158.31 37.176 159.238 36.072 159.878 34.856C160.55 33.64 160.886 32.44 160.886 31.256C160.886 30.136 160.55 29.048 159.878 27.992C159.206 26.936 158.15 26.056 156.71 25.352C155.462 24.744 154.166 24.248 152.822 23.864C151.51 23.448 150.374 23.096 149.414 22.808C148.454 22.488 147.894 22.168 147.734 21.848C147.734 21.464 147.894 21.208 148.214 21.08C148.566 20.92 149.014 20.84 149.558 20.84C150.198 20.84 150.966 20.888 151.862 20.984C152.758 21.08 153.702 21.128 154.694 21.128C155.718 21.128 156.758 20.904 157.814 20.456C158.902 19.976 159.894 19.352 160.79 18.584C161.686 17.784 162.406 16.92 162.95 15.992C163.526 15.032 163.814 14.056 163.814 13.064C163.814 12.168 163.51 11.288 162.902 10.424C162.294 9.56 161.286 8.808 159.878 8.168C158.47 7.528 156.95 7.016 155.318 6.632C153.718 8.84 152.118 11.32 150.518 14.072C148.918 16.792 147.318 19.56 145.718 22.376C144.118 25.16 142.502 27.8 140.87 30.296C139.238 32.792 137.606 34.936 135.974 36.728C135.59 37.144 135.286 37.464 135.062 37.688C134.838 37.88 134.534 38.152 134.15 38.504C135.654 39.112 137.366 39.688 139.286 40.232C141.206 40.776 143.398 41.16 145.862 41.384C146.118 41.416 146.374 41.432 146.63 41.432C146.918 41.464 147.19 41.48 147.446 41.48ZM122.006 41.384C123.798 41.48 125.43 41.272 126.902 40.76C128.406 40.216 129.798 39.464 131.078 38.504C129.958 37.96 128.806 37.4 127.622 36.824C126.47 36.216 125.238 35.672 123.926 35.192C122.998 34.872 122.15 34.712 121.382 34.712C120.198 34.712 119.302 35.032 118.694 35.672C118.086 36.28 117.782 36.984 117.782 37.784C117.782 38.616 118.134 39.416 118.838 40.184C119.542 40.92 120.598 41.32 122.006 41.384ZM170.768 41.192C169.584 41.192 168.512 40.808 167.552 40.04C166.624 39.272 166.16 38.104 166.16 36.536C166.16 35.096 166.512 33.56 167.216 31.928C167.92 30.264 168.816 28.808 169.904 27.56C170.832 26.472 171.872 25.576 173.024 24.872C174.176 24.168 175.264 23.816 176.288 23.816C176.992 23.816 177.6 24.008 178.112 24.392C178.656 24.808 178.928 25.4 178.928 26.168C178.928 26.968 178.624 27.848 178.016 28.808C177.408 29.768 176.544 30.664 175.424 31.496C174.944 31.848 174.336 32.184 173.6 32.504C172.864 32.824 172.128 33.096 171.392 33.32C170.656 33.512 170.048 33.608 169.568 33.608C169.408 33.992 169.248 34.504 169.088 35.144C168.96 35.784 168.896 36.44 168.896 37.112C168.896 37.912 169.056 38.632 169.376 39.272C169.696 39.912 170.288 40.232 171.152 40.232C172.208 40.232 173.168 39.928 174.032 39.32C174.896 38.712 175.664 37.96 176.336 37.064C177.008 36.136 177.568 35.208 178.016 34.28C178.496 33.352 178.88 32.568 179.168 31.928C179.36 31.48 179.616 31.256 179.936 31.256C180.096 31.256 180.176 31.336 180.176 31.496C180.176 31.624 180.128 31.784 180.032 31.976C179.584 32.936 179.104 33.96 178.592 35.048C178.08 36.104 177.472 37.112 176.768 38.072C176.064 39 175.216 39.752 174.224 40.328C173.264 40.904 172.112 41.192 170.768 41.192ZM169.904 32.744C170.352 32.744 171.104 32.584 172.16 32.264C173.216 31.912 174.176 31.368 175.04 30.632C175.872 29.896 176.512 29.096 176.96 28.232C177.408 27.336 177.632 26.584 177.632 25.976C177.632 25.272 177.376 24.92 176.864 24.92C176.48 24.92 175.952 25.176 175.28 25.688C174.608 26.2 173.776 27.064 172.784 28.28C172.176 29.048 171.6 29.88 171.056 30.776C170.512 31.672 170.128 32.328 169.904 32.744ZM184.978 41.048C184.37 41.048 183.762 40.808 183.154 40.328C182.546 39.816 182.242 39 182.242 37.88C182.242 37.016 182.45 36.024 182.866 34.904C183.25 33.816 183.762 32.76 184.402 31.736C185.074 30.712 185.554 29.88 185.842 29.24C185.938 28.984 185.986 28.76 185.986 28.568C185.986 27.992 185.618 27.576 184.882 27.32C184.178 27.064 183.25 26.92 182.098 26.888L181.522 28.472C181.17 29.496 180.674 30.696 180.034 32.072C179.426 33.448 178.738 34.776 177.97 36.056C177.234 37.336 176.466 38.36 175.666 39.128C175.602 39.192 175.522 39.224 175.426 39.224C175.298 39.224 175.218 39.144 175.186 38.984C175.122 38.824 175.186 38.632 175.378 38.408C176.626 36.744 177.746 34.904 178.738 32.888C179.73 30.84 180.562 28.76 181.234 26.648C181.938 24.536 182.45 22.584 182.77 20.792C182.866 20.28 183.042 19.912 183.298 19.688C183.554 19.432 183.826 19.304 184.114 19.304C184.53 19.304 184.914 19.512 185.266 19.928C185.618 20.312 185.794 20.872 185.794 21.608C185.794 21.736 185.778 21.88 185.746 22.04C185.746 22.2 185.73 22.36 185.698 22.52C185.57 23.192 185.186 23.832 184.546 24.44C183.938 25.016 183.442 25.448 183.058 25.736C183.378 25.768 183.714 25.8 184.066 25.832C184.418 25.832 184.802 25.832 185.218 25.832C186.722 25.832 188.21 25.736 189.682 25.544C189.746 25.736 189.778 25.88 189.778 25.976C189.778 26.392 189.65 26.92 189.394 27.56C189.17 28.2 188.93 28.776 188.674 29.288C188.546 29.576 188.29 30.104 187.906 30.872C187.522 31.608 187.106 32.456 186.658 33.416C186.21 34.344 185.826 35.272 185.506 36.2C185.218 37.096 185.074 37.864 185.074 38.504C185.074 39.336 185.394 39.752 186.034 39.752C186.514 39.752 187.042 39.448 187.618 38.84C188.194 38.2 188.754 37.432 189.298 36.536C189.874 35.608 190.386 34.712 190.834 33.848C191.314 32.952 191.682 32.248 191.938 31.736C192.066 31.416 192.242 31.256 192.466 31.256C192.594 31.256 192.658 31.368 192.658 31.592C192.658 31.72 192.61 31.912 192.514 32.168C192.162 32.904 191.746 33.736 191.266 34.664C190.786 35.592 190.242 36.504 189.634 37.4C189.058 38.296 188.418 39.08 187.714 39.752C187.042 40.392 186.306 40.808 185.506 41C185.41 41.032 185.234 41.048 184.978 41.048ZM192.886 41.192C191.318 41.192 190.198 40.792 189.526 39.992C188.886 39.16 188.566 38.296 188.566 37.4C188.566 36.664 188.742 35.992 189.094 35.384C189.478 34.776 189.926 34.456 190.438 34.424C191.078 33.176 191.766 31.816 192.502 30.344C193.27 28.872 193.974 27.448 194.614 26.072C195.062 25.144 195.622 24.248 196.294 23.384C196.998 22.52 197.766 22.024 198.598 21.896H199.078C199.334 21.896 199.558 21.912 199.75 21.944C199.974 21.976 200.198 22.04 200.422 22.136C200.774 22.296 200.95 22.536 200.95 22.856C200.95 23.048 200.838 23.144 200.614 23.144C200.518 23.144 200.39 23.096 200.23 23C199.846 22.84 199.51 22.76 199.222 22.76C199.03 22.76 198.854 22.808 198.694 22.904C198.086 23.224 197.654 23.672 197.398 24.248C197.174 24.824 197.062 25.432 197.062 26.072C197.062 26.584 197.11 27.112 197.206 27.656C197.334 28.168 197.478 28.632 197.638 29.048C197.99 29.944 198.358 30.824 198.742 31.688C199.158 32.552 199.366 33.48 199.366 34.472C199.366 35.432 199.046 36.456 198.406 37.544C197.766 38.6 196.95 39.448 195.958 40.088L196.294 40.136C196.454 40.168 196.566 40.184 196.63 40.184C196.694 40.184 196.742 40.184 196.774 40.184C197.51 40.184 198.198 39.976 198.838 39.56C199.51 39.112 200.102 38.568 200.614 37.928C201.126 37.288 201.702 36.392 202.342 35.24C203.014 34.088 203.654 32.872 204.262 31.592C204.358 31.432 204.47 31.352 204.598 31.352C204.758 31.352 204.87 31.416 204.934 31.544C205.03 31.64 205.046 31.768 204.982 31.928C204.566 32.824 204.086 33.8 203.542 34.856C203.03 35.88 202.438 36.872 201.766 37.832C201.094 38.76 200.31 39.528 199.414 40.136C198.55 40.712 197.574 41 196.486 41C196.23 41 195.958 40.984 195.67 40.952C195.382 40.92 195.094 40.856 194.806 40.76C194.486 40.888 194.15 40.984 193.798 41.048C193.478 41.144 193.174 41.192 192.886 41.192ZM194.326 39.752C194.87 39.304 195.35 38.648 195.766 37.784C196.214 36.92 196.438 35.784 196.438 34.376C196.438 33.128 196.31 31.8 196.054 30.392C195.798 28.984 195.67 27.736 195.67 26.648C195.67 26.424 195.67 26.232 195.67 26.072C195.702 25.88 195.734 25.704 195.766 25.544C195.35 26.408 194.87 27.416 194.326 28.568C193.782 29.688 193.238 30.776 192.694 31.832C192.15 32.888 191.686 33.784 191.302 34.52C191.302 34.52 191.382 34.536 191.542 34.568C191.734 34.568 191.91 34.68 192.07 34.904C192.23 35.096 192.294 35.496 192.262 36.104C192.23 36.904 192.406 37.656 192.79 38.36C193.206 39.032 193.718 39.496 194.326 39.752ZM192.502 40.424C192.694 40.424 192.87 40.408 193.03 40.376C193.19 40.312 193.334 40.264 193.462 40.232C192.982 39.88 192.55 39.416 192.166 38.84C191.814 38.232 191.606 37.464 191.542 36.536C190.966 37.144 190.678 37.8 190.678 38.504C190.678 39.016 190.838 39.464 191.158 39.848C191.478 40.232 191.926 40.424 192.502 40.424ZM199.502 41.384C200.846 38.632 202.238 35.752 203.678 32.744C205.15 29.704 206.654 26.648 208.19 23.576C209.726 20.504 211.246 17.576 212.75 14.792C213.294 13.832 213.79 13.08 214.238 12.536C214.718 11.992 215.342 11.72 216.11 11.72C216.398 11.72 216.734 11.768 217.118 11.864C217.502 11.96 217.87 11.976 218.222 11.912C217.806 12.36 217.23 13.144 216.494 14.264C215.79 15.384 214.99 16.728 214.094 18.296C213.23 19.864 212.302 21.56 211.31 23.384C210.35 25.176 209.39 27 208.43 28.856C207.502 30.68 206.638 32.392 205.838 33.992C206.478 33.16 207.134 32.376 207.806 31.64C208.478 30.904 209.134 30.264 209.774 29.72C210.478 29.08 211.358 28.408 212.414 27.704C213.502 27 214.574 26.392 215.63 25.88C216.718 25.368 217.582 25.112 218.222 25.112C218.446 25.112 218.606 25.128 218.702 25.16C218.702 25.16 218.526 25.48 218.174 26.12C217.822 26.76 217.374 27.576 216.83 28.568C216.318 29.56 215.774 30.632 215.198 31.784C214.654 32.936 214.174 34.04 213.758 35.096C213.342 36.12 213.07 36.968 212.942 37.64C212.846 38.152 212.798 38.584 212.798 38.936C212.798 39.448 212.894 39.8 213.086 39.992C213.278 40.152 213.486 40.232 213.71 40.232C214.254 40.232 214.846 39.896 215.486 39.224C216.126 38.552 216.75 37.736 217.358 36.776C217.966 35.784 218.51 34.824 218.99 33.896C219.502 32.968 219.886 32.248 220.142 31.736C220.334 31.384 220.526 31.208 220.718 31.208C220.91 31.208 221.006 31.336 221.006 31.592C221.006 31.72 220.958 31.912 220.862 32.168C220.446 33 219.966 33.944 219.422 35C218.91 36.024 218.318 37.016 217.646 37.976C217.006 38.904 216.286 39.672 215.486 40.28C214.718 40.888 213.886 41.192 212.99 41.192C212.35 41.192 211.694 40.968 211.022 40.52C210.35 40.072 210.014 39.256 210.014 38.072C210.014 37.72 210.046 37.352 210.11 36.968C210.174 36.552 210.286 36.088 210.446 35.576C210.638 34.936 210.958 34.232 211.406 33.464C211.854 32.664 212.43 31.672 213.134 30.488C213.454 29.944 213.614 29.512 213.614 29.192C213.614 28.808 213.422 28.616 213.038 28.616C212.718 28.616 212.286 28.776 211.742 29.096C211.198 29.416 210.51 29.976 209.678 30.776C208.878 31.544 207.886 32.664 206.702 34.136C205.518 35.608 204.254 37.672 202.91 40.328C202.686 40.744 202.43 40.968 202.142 41C201.886 41 201.534 41.016 201.086 41.048C200.798 41.08 200.51 41.096 200.222 41.096C199.934 41.128 199.694 41.224 199.502 41.384Z" fill="white"/>
<path d="M37.48 67.6H40.872L42.44 84.816H42.504L44.168 67.6H48.008L49.672 84.816H49.736L51.304 67.6H54.344L52.072 90H47.688L46.088 74.896H46.024L44.424 90H39.752L37.48 67.6ZM56.1245 67.6H65.7245V70.8H59.6445V76.72H64.4765V79.92H59.6445V86.8H65.7245V90H56.1245V67.6ZM67.7495 67.6H73.0615C74.8748 67.6 76.1975 68.0267 77.0295 68.88C77.8615 69.712 78.2775 71.0027 78.2775 72.752V73.648C78.2775 74.8 78.0855 75.7387 77.7015 76.464C77.3388 77.1893 76.7735 77.712 76.0055 78.032V78.096C77.7548 78.6933 78.6295 80.2507 78.6295 82.768V84.688C78.6295 86.416 78.1708 87.7387 77.2535 88.656C76.3575 89.552 75.0348 90 73.2855 90H67.7495V67.6ZM72.6455 76.72C73.3495 76.72 73.8722 76.5387 74.2135 76.176C74.5762 75.8133 74.7575 75.2053 74.7575 74.352V73.104C74.7575 72.2933 74.6082 71.7067 74.3095 71.344C74.0322 70.9813 73.5842 70.8 72.9655 70.8H71.2695V76.72H72.6455ZM73.2855 86.8C73.9042 86.8 74.3628 86.64 74.6615 86.32C74.9602 85.9787 75.1095 85.4027 75.1095 84.592V82.64C75.1095 81.616 74.9282 80.912 74.5655 80.528C74.2242 80.1227 73.6482 79.92 72.8375 79.92H71.2695V86.8H73.2855ZM85.812 67.6H91.188C92.9373 67.6 94.2493 68.0693 95.124 69.008C95.9987 69.9467 96.436 71.3227 96.436 73.136V84.464C96.436 86.2773 95.9987 87.6533 95.124 88.592C94.2493 89.5307 92.9373 90 91.188 90H85.812V67.6ZM91.124 86.8C91.7 86.8 92.1373 86.6293 92.436 86.288C92.756 85.9467 92.916 85.392 92.916 84.624V72.976C92.916 72.208 92.756 71.6533 92.436 71.312C92.1373 70.9707 91.7 70.8 91.124 70.8H89.332V86.8H91.124ZM98.812 67.6H108.412V70.8H102.332V76.72H107.164V79.92H102.332V86.8H108.412V90H98.812V67.6ZM109.509 67.6H113.061L115.365 84.976H115.429L117.733 67.6H120.965L117.573 90H112.901L109.509 67.6ZM122.656 67.6H132.256V70.8H126.176V76.72H131.008V79.92H126.176V86.8H132.256V90H122.656V67.6ZM134.281 67.6H137.801V86.8H143.593V90H134.281V67.6ZM150.244 90.32C148.516 90.32 147.193 89.8293 146.276 88.848C145.358 87.8667 144.9 86.48 144.9 84.688V72.912C144.9 71.12 145.358 69.7333 146.276 68.752C147.193 67.7707 148.516 67.28 150.244 67.28C151.972 67.28 153.294 67.7707 154.212 68.752C155.129 69.7333 155.588 71.12 155.588 72.912V84.688C155.588 86.48 155.129 87.8667 154.212 88.848C153.294 89.8293 151.972 90.32 150.244 90.32ZM150.244 87.12C151.46 87.12 152.068 86.384 152.068 84.912V72.688C152.068 71.216 151.46 70.48 150.244 70.48C149.028 70.48 148.42 71.216 148.42 72.688V84.912C148.42 86.384 149.028 87.12 150.244 87.12ZM157.968 67.6H163.152C164.902 67.6 166.214 68.0693 167.088 69.008C167.963 69.9467 168.4 71.3227 168.4 73.136V75.344C168.4 77.1573 167.963 78.5333 167.088 79.472C166.214 80.4107 164.902 80.88 163.152 80.88H161.488V90H157.968V67.6ZM163.152 77.68C163.728 77.68 164.155 77.52 164.432 77.2C164.731 76.88 164.88 76.336 164.88 75.568V72.912C164.88 72.144 164.731 71.6 164.432 71.28C164.155 70.96 163.728 70.8 163.152 70.8H161.488V77.68H163.152ZM170.312 67.6H179.912V70.8H173.832V76.72H178.664V79.92H173.832V86.8H179.912V90H170.312V67.6ZM181.937 67.6H187.153C188.966 67.6 190.289 68.0267 191.121 68.88C191.953 69.712 192.369 71.0027 192.369 72.752V74.128C192.369 76.4533 191.601 77.9253 190.065 78.544V78.608C190.918 78.864 191.516 79.3867 191.857 80.176C192.22 80.9653 192.401 82.0213 192.401 83.344V87.28C192.401 87.92 192.422 88.4427 192.465 88.848C192.508 89.232 192.614 89.616 192.785 90H189.201C189.073 89.6373 188.988 89.296 188.945 88.976C188.902 88.656 188.881 88.08 188.881 87.248V83.152C188.881 82.128 188.71 81.4133 188.369 81.008C188.049 80.6027 187.484 80.4 186.673 80.4H185.457V90H181.937V67.6ZM186.737 77.2C187.441 77.2 187.964 77.0187 188.305 76.656C188.668 76.2933 188.849 75.6853 188.849 74.832V73.104C188.849 72.2933 188.7 71.7067 188.401 71.344C188.124 70.9813 187.676 70.8 187.057 70.8H185.457V77.2H186.737Z" fill="white"/>
<line x1="6" y1="81" x2="26" y2="81" stroke="white" stroke-width="2"/>
<line x1="204" y1="81" x2="224" y2="81" stroke="white" stroke-width="2"/>
</svg>
